%TF.GenerationSoftware,KiCad,Pcbnew,(5.1.7)-1*%
%TF.CreationDate,2021-02-27T14:43:54+01:00*%
%TF.ProjectId,MidiToCV,4d696469-546f-4435-962e-6b696361645f,rev?*%
%TF.SameCoordinates,Original*%
%TF.FileFunction,Legend,Top*%
%TF.FilePolarity,Positive*%
%FSLAX46Y46*%
G04 Gerber Fmt 4.6, Leading zero omitted, Abs format (unit mm)*
G04 Created by KiCad (PCBNEW (5.1.7)-1) date 2021-02-27 14:43:54*
%MOMM*%
%LPD*%
G01*
G04 APERTURE LIST*
%ADD10C,0.120000*%
%ADD11C,0.200000*%
%ADD12C,0.150000*%
%ADD13C,0.254000*%
G04 APERTURE END LIST*
D10*
%TO.C,A1*%
X56640000Y-14060000D02*
X38600000Y-14060000D01*
X56640000Y-57500000D02*
X56640000Y-14060000D01*
X38600000Y-57500000D02*
X56640000Y-57500000D01*
X41270000Y-54830000D02*
X38600000Y-54830000D01*
X41270000Y-19270000D02*
X41270000Y-54830000D01*
X41270000Y-19270000D02*
X38600000Y-19270000D01*
X53970000Y-54830000D02*
X56640000Y-54830000D01*
X53970000Y-16730000D02*
X53970000Y-54830000D01*
X53970000Y-16730000D02*
X56640000Y-16730000D01*
X38600000Y-14060000D02*
X38600000Y-16730000D01*
X38600000Y-19270000D02*
X38600000Y-57500000D01*
X41270000Y-16730000D02*
X38600000Y-16730000D01*
X41270000Y-19270000D02*
X41270000Y-16730000D01*
D11*
%TO.C,U4*%
X42615000Y-77600000D02*
X42615000Y-75500000D01*
X52340000Y-75150000D02*
X42660000Y-75150000D01*
X52340000Y-68850000D02*
X52340000Y-75150000D01*
X42660000Y-68850000D02*
X52340000Y-68850000D01*
X42660000Y-75150000D02*
X42660000Y-68850000D01*
D10*
%TO.C,J19*%
X75080000Y-35670000D02*
X75080000Y-37000000D01*
X73750000Y-35670000D02*
X75080000Y-35670000D01*
X72480000Y-35670000D02*
X72480000Y-38330000D01*
X72480000Y-38330000D02*
X64800000Y-38330000D01*
X72480000Y-35670000D02*
X64800000Y-35670000D01*
X64800000Y-35670000D02*
X64800000Y-38330000D01*
D11*
%TO.C,Q1*%
X62450000Y-36020000D02*
X59250000Y-36020000D01*
X62450000Y-46560000D02*
X62450000Y-36020000D01*
X57750000Y-46560000D02*
X62450000Y-46560000D01*
D10*
%TO.C,R34*%
X47761252Y-63290000D02*
X47238748Y-63290000D01*
X47761252Y-64710000D02*
X47238748Y-64710000D01*
%TO.C,R33*%
X40960000Y-71286252D02*
X40960000Y-70763748D01*
X39540000Y-71286252D02*
X39540000Y-70763748D01*
%TO.C,J18*%
X45670000Y-84330000D02*
X45670000Y-83000000D01*
X47000000Y-84330000D02*
X45670000Y-84330000D01*
X48270000Y-84330000D02*
X48270000Y-81670000D01*
X48270000Y-81670000D02*
X50870000Y-81670000D01*
X48270000Y-84330000D02*
X50870000Y-84330000D01*
X50870000Y-84330000D02*
X50870000Y-81670000D01*
D11*
%TO.C,J17*%
X64250000Y-41950000D02*
X64250000Y-61000000D01*
X69210000Y-41950000D02*
X64250000Y-41950000D01*
X69210000Y-62270000D02*
X69210000Y-41950000D01*
X68000000Y-62270000D02*
X69210000Y-62270000D01*
D10*
%TO.C,D1*%
X46140000Y-80460000D02*
X49000000Y-80460000D01*
X46140000Y-78540000D02*
X46140000Y-80460000D01*
X49000000Y-78540000D02*
X46140000Y-78540000D01*
%TO.C,C1*%
X42263748Y-64710000D02*
X42786252Y-64710000D01*
X42263748Y-63290000D02*
X42786252Y-63290000D01*
%TO.C,U2*%
X68760000Y-26580000D02*
X67300000Y-26580000D01*
X68760000Y-23420000D02*
X66600000Y-23420000D01*
X68760000Y-23420000D02*
X68760000Y-24350000D01*
X68760000Y-26580000D02*
X68760000Y-25650000D01*
D11*
%TO.C,IC4*%
X91150000Y-77825000D02*
X91150000Y-79300000D01*
%TO.C,IC3*%
X91150000Y-59325000D02*
X91150000Y-60800000D01*
%TO.C,IC2*%
X91150000Y-41325000D02*
X91150000Y-42800000D01*
%TO.C,IC1*%
X91150000Y-23325000D02*
X91150000Y-24800000D01*
%TO.C,U7*%
X99130000Y-77030000D02*
X100655000Y-77030000D01*
X101005000Y-85840000D02*
X101005000Y-77190000D01*
X104205000Y-85840000D02*
X101005000Y-85840000D01*
X104205000Y-77190000D02*
X104205000Y-85840000D01*
X101005000Y-77190000D02*
X104205000Y-77190000D01*
%TO.C,U5*%
X98650000Y-58300000D02*
X100175000Y-58300000D01*
X100525000Y-67110000D02*
X100525000Y-58460000D01*
X103725000Y-67110000D02*
X100525000Y-67110000D01*
X103725000Y-58460000D02*
X103725000Y-67110000D01*
X100525000Y-58460000D02*
X103725000Y-58460000D01*
%TO.C,U3*%
X98650000Y-41030000D02*
X100175000Y-41030000D01*
X100525000Y-49840000D02*
X100525000Y-41190000D01*
X103725000Y-49840000D02*
X100525000Y-49840000D01*
X103725000Y-41190000D02*
X103725000Y-49840000D01*
X100525000Y-41190000D02*
X103725000Y-41190000D01*
D10*
%TO.C,R32*%
X109261252Y-83290000D02*
X108738748Y-83290000D01*
X109261252Y-84710000D02*
X108738748Y-84710000D01*
%TO.C,R31*%
X108738748Y-79710000D02*
X109261252Y-79710000D01*
X108738748Y-78290000D02*
X109261252Y-78290000D01*
%TO.C,R30*%
X105738748Y-88710000D02*
X106261252Y-88710000D01*
X105738748Y-87290000D02*
X106261252Y-87290000D01*
%TO.C,R29*%
X107261252Y-74290000D02*
X106738748Y-74290000D01*
X107261252Y-75710000D02*
X106738748Y-75710000D01*
%TO.C,R28*%
X97738748Y-75710000D02*
X98261252Y-75710000D01*
X97738748Y-74290000D02*
X98261252Y-74290000D01*
%TO.C,R27*%
X98261252Y-87290000D02*
X97738748Y-87290000D01*
X98261252Y-88710000D02*
X97738748Y-88710000D01*
%TO.C,R26*%
X95738748Y-79710000D02*
X96261252Y-79710000D01*
X95738748Y-78290000D02*
X96261252Y-78290000D01*
%TO.C,R25*%
X95761252Y-85040000D02*
X95238748Y-85040000D01*
X95761252Y-86460000D02*
X95238748Y-86460000D01*
%TO.C,R24*%
X109261252Y-65290000D02*
X108738748Y-65290000D01*
X109261252Y-66710000D02*
X108738748Y-66710000D01*
%TO.C,R23*%
X108488748Y-60710000D02*
X109011252Y-60710000D01*
X108488748Y-59290000D02*
X109011252Y-59290000D01*
%TO.C,R22*%
X106738748Y-69710000D02*
X107261252Y-69710000D01*
X106738748Y-68290000D02*
X107261252Y-68290000D01*
%TO.C,R21*%
X106261252Y-55790000D02*
X105738748Y-55790000D01*
X106261252Y-57210000D02*
X105738748Y-57210000D01*
%TO.C,R20*%
X98238748Y-57210000D02*
X98761252Y-57210000D01*
X98238748Y-55790000D02*
X98761252Y-55790000D01*
%TO.C,R19*%
X97261252Y-68290000D02*
X96738748Y-68290000D01*
X97261252Y-69710000D02*
X96738748Y-69710000D01*
%TO.C,R18*%
X95238748Y-60210000D02*
X95761252Y-60210000D01*
X95238748Y-58790000D02*
X95761252Y-58790000D01*
%TO.C,R17*%
X95261252Y-66290000D02*
X94738748Y-66290000D01*
X95261252Y-67710000D02*
X94738748Y-67710000D01*
%TO.C,R16*%
X109261252Y-47290000D02*
X108738748Y-47290000D01*
X109261252Y-48710000D02*
X108738748Y-48710000D01*
%TO.C,R15*%
X108713748Y-42710000D02*
X109236252Y-42710000D01*
X108713748Y-41290000D02*
X109236252Y-41290000D01*
%TO.C,R14*%
X105738748Y-52710000D02*
X106261252Y-52710000D01*
X105738748Y-51290000D02*
X106261252Y-51290000D01*
%TO.C,R13*%
X106261252Y-38290000D02*
X105738748Y-38290000D01*
X106261252Y-39710000D02*
X105738748Y-39710000D01*
%TO.C,R12*%
X97738748Y-39710000D02*
X98261252Y-39710000D01*
X97738748Y-38290000D02*
X98261252Y-38290000D01*
%TO.C,R11*%
X97261252Y-51290000D02*
X96738748Y-51290000D01*
X97261252Y-52710000D02*
X96738748Y-52710000D01*
%TO.C,R10*%
X94738748Y-42710000D02*
X95261252Y-42710000D01*
X94738748Y-41290000D02*
X95261252Y-41290000D01*
%TO.C,R9*%
X94761252Y-48790000D02*
X94238748Y-48790000D01*
X94761252Y-50210000D02*
X94238748Y-50210000D01*
D11*
%TO.C,U1*%
X98905000Y-22505000D02*
X100430000Y-22505000D01*
X100780000Y-31315000D02*
X100780000Y-22665000D01*
X103980000Y-31315000D02*
X100780000Y-31315000D01*
X103980000Y-22665000D02*
X103980000Y-31315000D01*
X100780000Y-22665000D02*
X103980000Y-22665000D01*
D10*
%TO.C,R8*%
X108991252Y-28820000D02*
X108468748Y-28820000D01*
X108991252Y-30240000D02*
X108468748Y-30240000D01*
%TO.C,R7*%
X105928748Y-34050000D02*
X106451252Y-34050000D01*
X105928748Y-32630000D02*
X106451252Y-32630000D01*
%TO.C,R6*%
X108738748Y-25160000D02*
X109261252Y-25160000D01*
X108738748Y-23740000D02*
X109261252Y-23740000D01*
%TO.C,R5*%
X106451252Y-19930000D02*
X105928748Y-19930000D01*
X106451252Y-21350000D02*
X105928748Y-21350000D01*
%TO.C,R4*%
X95768748Y-25160000D02*
X96291252Y-25160000D01*
X95768748Y-23740000D02*
X96291252Y-23740000D01*
%TO.C,R3*%
X95761252Y-30290000D02*
X95238748Y-30290000D01*
X95761252Y-31710000D02*
X95238748Y-31710000D01*
%TO.C,R2*%
X98553748Y-21350000D02*
X99076252Y-21350000D01*
X98553748Y-19930000D02*
X99076252Y-19930000D01*
%TO.C,R1*%
X98831252Y-32630000D02*
X98308748Y-32630000D01*
X98831252Y-34050000D02*
X98308748Y-34050000D01*
%TO.C,A1*%
D12*
X46905714Y-13086666D02*
X47381904Y-13086666D01*
X46810476Y-13372380D02*
X47143809Y-12372380D01*
X47477142Y-13372380D01*
X48334285Y-13372380D02*
X47762857Y-13372380D01*
X48048571Y-13372380D02*
X48048571Y-12372380D01*
X47953333Y-12515238D01*
X47858095Y-12610476D01*
X47762857Y-12658095D01*
%TO.C,U4*%
D13*
X46804523Y-72967619D02*
X47832619Y-72967619D01*
X47953571Y-72907142D01*
X48014047Y-72846666D01*
X48074523Y-72725714D01*
X48074523Y-72483809D01*
X48014047Y-72362857D01*
X47953571Y-72302380D01*
X47832619Y-72241904D01*
X46804523Y-72241904D01*
X47227857Y-71092857D02*
X48074523Y-71092857D01*
X46744047Y-71395238D02*
X47651190Y-71697619D01*
X47651190Y-70911428D01*
%TO.C,J19*%
D12*
X75532380Y-37809523D02*
X76246666Y-37809523D01*
X76389523Y-37857142D01*
X76484761Y-37952380D01*
X76532380Y-38095238D01*
X76532380Y-38190476D01*
X76532380Y-36809523D02*
X76532380Y-37380952D01*
X76532380Y-37095238D02*
X75532380Y-37095238D01*
X75675238Y-37190476D01*
X75770476Y-37285714D01*
X75818095Y-37380952D01*
X76532380Y-36333333D02*
X76532380Y-36142857D01*
X76484761Y-36047619D01*
X76437142Y-36000000D01*
X76294285Y-35904761D01*
X76103809Y-35857142D01*
X75722857Y-35857142D01*
X75627619Y-35904761D01*
X75580000Y-35952380D01*
X75532380Y-36047619D01*
X75532380Y-36238095D01*
X75580000Y-36333333D01*
X75627619Y-36380952D01*
X75722857Y-36428571D01*
X75960952Y-36428571D01*
X76056190Y-36380952D01*
X76103809Y-36333333D01*
X76151428Y-36238095D01*
X76151428Y-36047619D01*
X76103809Y-35952380D01*
X76056190Y-35904761D01*
X75960952Y-35857142D01*
%TO.C,J8*%
D13*
X177576666Y-45554523D02*
X177576666Y-46461666D01*
X177516190Y-46643095D01*
X177395238Y-46764047D01*
X177213809Y-46824523D01*
X177092857Y-46824523D01*
X178362857Y-46098809D02*
X178241904Y-46038333D01*
X178181428Y-45977857D01*
X178120952Y-45856904D01*
X178120952Y-45796428D01*
X178181428Y-45675476D01*
X178241904Y-45615000D01*
X178362857Y-45554523D01*
X178604761Y-45554523D01*
X178725714Y-45615000D01*
X178786190Y-45675476D01*
X178846666Y-45796428D01*
X178846666Y-45856904D01*
X178786190Y-45977857D01*
X178725714Y-46038333D01*
X178604761Y-46098809D01*
X178362857Y-46098809D01*
X178241904Y-46159285D01*
X178181428Y-46219761D01*
X178120952Y-46340714D01*
X178120952Y-46582619D01*
X178181428Y-46703571D01*
X178241904Y-46764047D01*
X178362857Y-46824523D01*
X178604761Y-46824523D01*
X178725714Y-46764047D01*
X178786190Y-46703571D01*
X178846666Y-46582619D01*
X178846666Y-46340714D01*
X178786190Y-46219761D01*
X178725714Y-46159285D01*
X178604761Y-46098809D01*
%TO.C,J16*%
X177721904Y-80554523D02*
X177721904Y-81461666D01*
X177661428Y-81643095D01*
X177540476Y-81764047D01*
X177359047Y-81824523D01*
X177238095Y-81824523D01*
X178991904Y-81824523D02*
X178266190Y-81824523D01*
X178629047Y-81824523D02*
X178629047Y-80554523D01*
X178508095Y-80735952D01*
X178387142Y-80856904D01*
X178266190Y-80917380D01*
X180080476Y-80554523D02*
X179838571Y-80554523D01*
X179717619Y-80615000D01*
X179657142Y-80675476D01*
X179536190Y-80856904D01*
X179475714Y-81098809D01*
X179475714Y-81582619D01*
X179536190Y-81703571D01*
X179596666Y-81764047D01*
X179717619Y-81824523D01*
X179959523Y-81824523D01*
X180080476Y-81764047D01*
X180140952Y-81703571D01*
X180201428Y-81582619D01*
X180201428Y-81280238D01*
X180140952Y-81159285D01*
X180080476Y-81098809D01*
X179959523Y-81038333D01*
X179717619Y-81038333D01*
X179596666Y-81098809D01*
X179536190Y-81159285D01*
X179475714Y-81280238D01*
%TO.C,J15*%
X158721904Y-81054523D02*
X158721904Y-81961666D01*
X158661428Y-82143095D01*
X158540476Y-82264047D01*
X158359047Y-82324523D01*
X158238095Y-82324523D01*
X159991904Y-82324523D02*
X159266190Y-82324523D01*
X159629047Y-82324523D02*
X159629047Y-81054523D01*
X159508095Y-81235952D01*
X159387142Y-81356904D01*
X159266190Y-81417380D01*
X161140952Y-81054523D02*
X160536190Y-81054523D01*
X160475714Y-81659285D01*
X160536190Y-81598809D01*
X160657142Y-81538333D01*
X160959523Y-81538333D01*
X161080476Y-81598809D01*
X161140952Y-81659285D01*
X161201428Y-81780238D01*
X161201428Y-82082619D01*
X161140952Y-82203571D01*
X161080476Y-82264047D01*
X160959523Y-82324523D01*
X160657142Y-82324523D01*
X160536190Y-82264047D01*
X160475714Y-82203571D01*
%TO.C,J13*%
X121721904Y-82054523D02*
X121721904Y-82961666D01*
X121661428Y-83143095D01*
X121540476Y-83264047D01*
X121359047Y-83324523D01*
X121238095Y-83324523D01*
X122991904Y-83324523D02*
X122266190Y-83324523D01*
X122629047Y-83324523D02*
X122629047Y-82054523D01*
X122508095Y-82235952D01*
X122387142Y-82356904D01*
X122266190Y-82417380D01*
X123415238Y-82054523D02*
X124201428Y-82054523D01*
X123778095Y-82538333D01*
X123959523Y-82538333D01*
X124080476Y-82598809D01*
X124140952Y-82659285D01*
X124201428Y-82780238D01*
X124201428Y-83082619D01*
X124140952Y-83203571D01*
X124080476Y-83264047D01*
X123959523Y-83324523D01*
X123596666Y-83324523D01*
X123475714Y-83264047D01*
X123415238Y-83203571D01*
%TO.C,J12*%
X177221904Y-63304523D02*
X177221904Y-64211666D01*
X177161428Y-64393095D01*
X177040476Y-64514047D01*
X176859047Y-64574523D01*
X176738095Y-64574523D01*
X178491904Y-64574523D02*
X177766190Y-64574523D01*
X178129047Y-64574523D02*
X178129047Y-63304523D01*
X178008095Y-63485952D01*
X177887142Y-63606904D01*
X177766190Y-63667380D01*
X178975714Y-63425476D02*
X179036190Y-63365000D01*
X179157142Y-63304523D01*
X179459523Y-63304523D01*
X179580476Y-63365000D01*
X179640952Y-63425476D01*
X179701428Y-63546428D01*
X179701428Y-63667380D01*
X179640952Y-63848809D01*
X178915238Y-64574523D01*
X179701428Y-64574523D01*
%TO.C,J11*%
X159471904Y-62554523D02*
X159471904Y-63461666D01*
X159411428Y-63643095D01*
X159290476Y-63764047D01*
X159109047Y-63824523D01*
X158988095Y-63824523D01*
X160741904Y-63824523D02*
X160016190Y-63824523D01*
X160379047Y-63824523D02*
X160379047Y-62554523D01*
X160258095Y-62735952D01*
X160137142Y-62856904D01*
X160016190Y-62917380D01*
X161951428Y-63824523D02*
X161225714Y-63824523D01*
X161588571Y-63824523D02*
X161588571Y-62554523D01*
X161467619Y-62735952D01*
X161346666Y-62856904D01*
X161225714Y-62917380D01*
%TO.C,J9*%
X122576666Y-63304523D02*
X122576666Y-64211666D01*
X122516190Y-64393095D01*
X122395238Y-64514047D01*
X122213809Y-64574523D01*
X122092857Y-64574523D01*
X123241904Y-64574523D02*
X123483809Y-64574523D01*
X123604761Y-64514047D01*
X123665238Y-64453571D01*
X123786190Y-64272142D01*
X123846666Y-64030238D01*
X123846666Y-63546428D01*
X123786190Y-63425476D01*
X123725714Y-63365000D01*
X123604761Y-63304523D01*
X123362857Y-63304523D01*
X123241904Y-63365000D01*
X123181428Y-63425476D01*
X123120952Y-63546428D01*
X123120952Y-63848809D01*
X123181428Y-63969761D01*
X123241904Y-64030238D01*
X123362857Y-64090714D01*
X123604761Y-64090714D01*
X123725714Y-64030238D01*
X123786190Y-63969761D01*
X123846666Y-63848809D01*
%TO.C,J7*%
X159076666Y-45554523D02*
X159076666Y-46461666D01*
X159016190Y-46643095D01*
X158895238Y-46764047D01*
X158713809Y-46824523D01*
X158592857Y-46824523D01*
X159560476Y-45554523D02*
X160407142Y-45554523D01*
X159862857Y-46824523D01*
%TO.C,J5*%
X122576666Y-45304523D02*
X122576666Y-46211666D01*
X122516190Y-46393095D01*
X122395238Y-46514047D01*
X122213809Y-46574523D01*
X122092857Y-46574523D01*
X123786190Y-45304523D02*
X123181428Y-45304523D01*
X123120952Y-45909285D01*
X123181428Y-45848809D01*
X123302380Y-45788333D01*
X123604761Y-45788333D01*
X123725714Y-45848809D01*
X123786190Y-45909285D01*
X123846666Y-46030238D01*
X123846666Y-46332619D01*
X123786190Y-46453571D01*
X123725714Y-46514047D01*
X123604761Y-46574523D01*
X123302380Y-46574523D01*
X123181428Y-46514047D01*
X123120952Y-46453571D01*
%TO.C,J4*%
X177076666Y-26804523D02*
X177076666Y-27711666D01*
X177016190Y-27893095D01*
X176895238Y-28014047D01*
X176713809Y-28074523D01*
X176592857Y-28074523D01*
X178225714Y-27227857D02*
X178225714Y-28074523D01*
X177923333Y-26744047D02*
X177620952Y-27651190D01*
X178407142Y-27651190D01*
%TO.C,J1*%
X123826666Y-26804523D02*
X123826666Y-27711666D01*
X123766190Y-27893095D01*
X123645238Y-28014047D01*
X123463809Y-28074523D01*
X123342857Y-28074523D01*
X125096666Y-28074523D02*
X124370952Y-28074523D01*
X124733809Y-28074523D02*
X124733809Y-26804523D01*
X124612857Y-26985952D01*
X124491904Y-27106904D01*
X124370952Y-27167380D01*
%TO.C,J3*%
X159576666Y-26804523D02*
X159576666Y-27711666D01*
X159516190Y-27893095D01*
X159395238Y-28014047D01*
X159213809Y-28074523D01*
X159092857Y-28074523D01*
X160060476Y-26804523D02*
X160846666Y-26804523D01*
X160423333Y-27288333D01*
X160604761Y-27288333D01*
X160725714Y-27348809D01*
X160786190Y-27409285D01*
X160846666Y-27530238D01*
X160846666Y-27832619D01*
X160786190Y-27953571D01*
X160725714Y-28014047D01*
X160604761Y-28074523D01*
X160241904Y-28074523D01*
X160120952Y-28014047D01*
X160060476Y-27953571D01*
%TO.C,Q1*%
X59379047Y-35445476D02*
X59258095Y-35385000D01*
X59137142Y-35264047D01*
X58955714Y-35082619D01*
X58834761Y-35022142D01*
X58713809Y-35022142D01*
X58774285Y-35324523D02*
X58653333Y-35264047D01*
X58532380Y-35143095D01*
X58471904Y-34901190D01*
X58471904Y-34477857D01*
X58532380Y-34235952D01*
X58653333Y-34115000D01*
X58774285Y-34054523D01*
X59016190Y-34054523D01*
X59137142Y-34115000D01*
X59258095Y-34235952D01*
X59318571Y-34477857D01*
X59318571Y-34901190D01*
X59258095Y-35143095D01*
X59137142Y-35264047D01*
X59016190Y-35324523D01*
X58774285Y-35324523D01*
X60528095Y-35324523D02*
X59802380Y-35324523D01*
X60165238Y-35324523D02*
X60165238Y-34054523D01*
X60044285Y-34235952D01*
X59923333Y-34356904D01*
X59802380Y-34417380D01*
%TO.C,R34*%
D12*
X46857142Y-62702380D02*
X46523809Y-62226190D01*
X46285714Y-62702380D02*
X46285714Y-61702380D01*
X46666666Y-61702380D01*
X46761904Y-61750000D01*
X46809523Y-61797619D01*
X46857142Y-61892857D01*
X46857142Y-62035714D01*
X46809523Y-62130952D01*
X46761904Y-62178571D01*
X46666666Y-62226190D01*
X46285714Y-62226190D01*
X47190476Y-61702380D02*
X47809523Y-61702380D01*
X47476190Y-62083333D01*
X47619047Y-62083333D01*
X47714285Y-62130952D01*
X47761904Y-62178571D01*
X47809523Y-62273809D01*
X47809523Y-62511904D01*
X47761904Y-62607142D01*
X47714285Y-62654761D01*
X47619047Y-62702380D01*
X47333333Y-62702380D01*
X47238095Y-62654761D01*
X47190476Y-62607142D01*
X48666666Y-62035714D02*
X48666666Y-62702380D01*
X48428571Y-61654761D02*
X48190476Y-62369047D01*
X48809523Y-62369047D01*
%TO.C,R33*%
X39052380Y-71667857D02*
X38576190Y-72001190D01*
X39052380Y-72239285D02*
X38052380Y-72239285D01*
X38052380Y-71858333D01*
X38100000Y-71763095D01*
X38147619Y-71715476D01*
X38242857Y-71667857D01*
X38385714Y-71667857D01*
X38480952Y-71715476D01*
X38528571Y-71763095D01*
X38576190Y-71858333D01*
X38576190Y-72239285D01*
X38052380Y-71334523D02*
X38052380Y-70715476D01*
X38433333Y-71048809D01*
X38433333Y-70905952D01*
X38480952Y-70810714D01*
X38528571Y-70763095D01*
X38623809Y-70715476D01*
X38861904Y-70715476D01*
X38957142Y-70763095D01*
X39004761Y-70810714D01*
X39052380Y-70905952D01*
X39052380Y-71191666D01*
X39004761Y-71286904D01*
X38957142Y-71334523D01*
X38052380Y-70382142D02*
X38052380Y-69763095D01*
X38433333Y-70096428D01*
X38433333Y-69953571D01*
X38480952Y-69858333D01*
X38528571Y-69810714D01*
X38623809Y-69763095D01*
X38861904Y-69763095D01*
X38957142Y-69810714D01*
X39004761Y-69858333D01*
X39052380Y-69953571D01*
X39052380Y-70239285D01*
X39004761Y-70334523D01*
X38957142Y-70382142D01*
%TO.C,J18*%
X44122380Y-83809523D02*
X44836666Y-83809523D01*
X44979523Y-83857142D01*
X45074761Y-83952380D01*
X45122380Y-84095238D01*
X45122380Y-84190476D01*
X45122380Y-82809523D02*
X45122380Y-83380952D01*
X45122380Y-83095238D02*
X44122380Y-83095238D01*
X44265238Y-83190476D01*
X44360476Y-83285714D01*
X44408095Y-83380952D01*
X44550952Y-82238095D02*
X44503333Y-82333333D01*
X44455714Y-82380952D01*
X44360476Y-82428571D01*
X44312857Y-82428571D01*
X44217619Y-82380952D01*
X44170000Y-82333333D01*
X44122380Y-82238095D01*
X44122380Y-82047619D01*
X44170000Y-81952380D01*
X44217619Y-81904761D01*
X44312857Y-81857142D01*
X44360476Y-81857142D01*
X44455714Y-81904761D01*
X44503333Y-81952380D01*
X44550952Y-82047619D01*
X44550952Y-82238095D01*
X44598571Y-82333333D01*
X44646190Y-82380952D01*
X44741428Y-82428571D01*
X44931904Y-82428571D01*
X45027142Y-82380952D01*
X45074761Y-82333333D01*
X45122380Y-82238095D01*
X45122380Y-82047619D01*
X45074761Y-81952380D01*
X45027142Y-81904761D01*
X44931904Y-81857142D01*
X44741428Y-81857142D01*
X44646190Y-81904761D01*
X44598571Y-81952380D01*
X44550952Y-82047619D01*
%TO.C,J17*%
D13*
X65721904Y-63054523D02*
X65721904Y-63961666D01*
X65661428Y-64143095D01*
X65540476Y-64264047D01*
X65359047Y-64324523D01*
X65238095Y-64324523D01*
X66991904Y-64324523D02*
X66266190Y-64324523D01*
X66629047Y-64324523D02*
X66629047Y-63054523D01*
X66508095Y-63235952D01*
X66387142Y-63356904D01*
X66266190Y-63417380D01*
X67415238Y-63054523D02*
X68261904Y-63054523D01*
X67717619Y-64324523D01*
%TO.C,D1*%
D12*
X47261904Y-78302380D02*
X47261904Y-77302380D01*
X47500000Y-77302380D01*
X47642857Y-77350000D01*
X47738095Y-77445238D01*
X47785714Y-77540476D01*
X47833333Y-77730952D01*
X47833333Y-77873809D01*
X47785714Y-78064285D01*
X47738095Y-78159523D01*
X47642857Y-78254761D01*
X47500000Y-78302380D01*
X47261904Y-78302380D01*
X48785714Y-78302380D02*
X48214285Y-78302380D01*
X48500000Y-78302380D02*
X48500000Y-77302380D01*
X48404761Y-77445238D01*
X48309523Y-77540476D01*
X48214285Y-77588095D01*
%TO.C,C1*%
X42358333Y-62707142D02*
X42310714Y-62754761D01*
X42167857Y-62802380D01*
X42072619Y-62802380D01*
X41929761Y-62754761D01*
X41834523Y-62659523D01*
X41786904Y-62564285D01*
X41739285Y-62373809D01*
X41739285Y-62230952D01*
X41786904Y-62040476D01*
X41834523Y-61945238D01*
X41929761Y-61850000D01*
X42072619Y-61802380D01*
X42167857Y-61802380D01*
X42310714Y-61850000D01*
X42358333Y-61897619D01*
X43310714Y-62802380D02*
X42739285Y-62802380D01*
X43025000Y-62802380D02*
X43025000Y-61802380D01*
X42929761Y-61945238D01*
X42834523Y-62040476D01*
X42739285Y-62088095D01*
%TO.C,U2*%
X67238095Y-21952380D02*
X67238095Y-22761904D01*
X67285714Y-22857142D01*
X67333333Y-22904761D01*
X67428571Y-22952380D01*
X67619047Y-22952380D01*
X67714285Y-22904761D01*
X67761904Y-22857142D01*
X67809523Y-22761904D01*
X67809523Y-21952380D01*
X68238095Y-22047619D02*
X68285714Y-22000000D01*
X68380952Y-21952380D01*
X68619047Y-21952380D01*
X68714285Y-22000000D01*
X68761904Y-22047619D01*
X68809523Y-22142857D01*
X68809523Y-22238095D01*
X68761904Y-22380952D01*
X68190476Y-22952380D01*
X68809523Y-22952380D01*
%TO.C,IC4*%
D13*
X82074523Y-82739761D02*
X80804523Y-82739761D01*
X81953571Y-81409285D02*
X82014047Y-81469761D01*
X82074523Y-81651190D01*
X82074523Y-81772142D01*
X82014047Y-81953571D01*
X81893095Y-82074523D01*
X81772142Y-82135000D01*
X81530238Y-82195476D01*
X81348809Y-82195476D01*
X81106904Y-82135000D01*
X80985952Y-82074523D01*
X80865000Y-81953571D01*
X80804523Y-81772142D01*
X80804523Y-81651190D01*
X80865000Y-81469761D01*
X80925476Y-81409285D01*
X81227857Y-80320714D02*
X82074523Y-80320714D01*
X80744047Y-80623095D02*
X81651190Y-80925476D01*
X81651190Y-80139285D01*
%TO.C,IC3*%
X81824523Y-64239761D02*
X80554523Y-64239761D01*
X81703571Y-62909285D02*
X81764047Y-62969761D01*
X81824523Y-63151190D01*
X81824523Y-63272142D01*
X81764047Y-63453571D01*
X81643095Y-63574523D01*
X81522142Y-63635000D01*
X81280238Y-63695476D01*
X81098809Y-63695476D01*
X80856904Y-63635000D01*
X80735952Y-63574523D01*
X80615000Y-63453571D01*
X80554523Y-63272142D01*
X80554523Y-63151190D01*
X80615000Y-62969761D01*
X80675476Y-62909285D01*
X80554523Y-62485952D02*
X80554523Y-61699761D01*
X81038333Y-62123095D01*
X81038333Y-61941666D01*
X81098809Y-61820714D01*
X81159285Y-61760238D01*
X81280238Y-61699761D01*
X81582619Y-61699761D01*
X81703571Y-61760238D01*
X81764047Y-61820714D01*
X81824523Y-61941666D01*
X81824523Y-62304523D01*
X81764047Y-62425476D01*
X81703571Y-62485952D01*
%TO.C,IC2*%
X82074523Y-46239761D02*
X80804523Y-46239761D01*
X81953571Y-44909285D02*
X82014047Y-44969761D01*
X82074523Y-45151190D01*
X82074523Y-45272142D01*
X82014047Y-45453571D01*
X81893095Y-45574523D01*
X81772142Y-45635000D01*
X81530238Y-45695476D01*
X81348809Y-45695476D01*
X81106904Y-45635000D01*
X80985952Y-45574523D01*
X80865000Y-45453571D01*
X80804523Y-45272142D01*
X80804523Y-45151190D01*
X80865000Y-44969761D01*
X80925476Y-44909285D01*
X80925476Y-44425476D02*
X80865000Y-44365000D01*
X80804523Y-44244047D01*
X80804523Y-43941666D01*
X80865000Y-43820714D01*
X80925476Y-43760238D01*
X81046428Y-43699761D01*
X81167380Y-43699761D01*
X81348809Y-43760238D01*
X82074523Y-44485952D01*
X82074523Y-43699761D01*
%TO.C,IC1*%
X82074523Y-28239761D02*
X80804523Y-28239761D01*
X81953571Y-26909285D02*
X82014047Y-26969761D01*
X82074523Y-27151190D01*
X82074523Y-27272142D01*
X82014047Y-27453571D01*
X81893095Y-27574523D01*
X81772142Y-27635000D01*
X81530238Y-27695476D01*
X81348809Y-27695476D01*
X81106904Y-27635000D01*
X80985952Y-27574523D01*
X80865000Y-27453571D01*
X80804523Y-27272142D01*
X80804523Y-27151190D01*
X80865000Y-26969761D01*
X80925476Y-26909285D01*
X82074523Y-25699761D02*
X82074523Y-26425476D01*
X82074523Y-26062619D02*
X80804523Y-26062619D01*
X80985952Y-26183571D01*
X81106904Y-26304523D01*
X81167380Y-26425476D01*
%TO.C,U7*%
X101637380Y-80819523D02*
X101637380Y-81847619D01*
X101697857Y-81968571D01*
X101758333Y-82029047D01*
X101879285Y-82089523D01*
X102121190Y-82089523D01*
X102242142Y-82029047D01*
X102302619Y-81968571D01*
X102363095Y-81847619D01*
X102363095Y-80819523D01*
X102846904Y-80819523D02*
X103693571Y-80819523D01*
X103149285Y-82089523D01*
%TO.C,U5*%
X101157380Y-62089523D02*
X101157380Y-63117619D01*
X101217857Y-63238571D01*
X101278333Y-63299047D01*
X101399285Y-63359523D01*
X101641190Y-63359523D01*
X101762142Y-63299047D01*
X101822619Y-63238571D01*
X101883095Y-63117619D01*
X101883095Y-62089523D01*
X103092619Y-62089523D02*
X102487857Y-62089523D01*
X102427380Y-62694285D01*
X102487857Y-62633809D01*
X102608809Y-62573333D01*
X102911190Y-62573333D01*
X103032142Y-62633809D01*
X103092619Y-62694285D01*
X103153095Y-62815238D01*
X103153095Y-63117619D01*
X103092619Y-63238571D01*
X103032142Y-63299047D01*
X102911190Y-63359523D01*
X102608809Y-63359523D01*
X102487857Y-63299047D01*
X102427380Y-63238571D01*
%TO.C,U3*%
X101157380Y-44819523D02*
X101157380Y-45847619D01*
X101217857Y-45968571D01*
X101278333Y-46029047D01*
X101399285Y-46089523D01*
X101641190Y-46089523D01*
X101762142Y-46029047D01*
X101822619Y-45968571D01*
X101883095Y-45847619D01*
X101883095Y-44819523D01*
X102366904Y-44819523D02*
X103153095Y-44819523D01*
X102729761Y-45303333D01*
X102911190Y-45303333D01*
X103032142Y-45363809D01*
X103092619Y-45424285D01*
X103153095Y-45545238D01*
X103153095Y-45847619D01*
X103092619Y-45968571D01*
X103032142Y-46029047D01*
X102911190Y-46089523D01*
X102548333Y-46089523D01*
X102427380Y-46029047D01*
X102366904Y-45968571D01*
%TO.C,R32*%
D12*
X108357142Y-82702380D02*
X108023809Y-82226190D01*
X107785714Y-82702380D02*
X107785714Y-81702380D01*
X108166666Y-81702380D01*
X108261904Y-81750000D01*
X108309523Y-81797619D01*
X108357142Y-81892857D01*
X108357142Y-82035714D01*
X108309523Y-82130952D01*
X108261904Y-82178571D01*
X108166666Y-82226190D01*
X107785714Y-82226190D01*
X108690476Y-81702380D02*
X109309523Y-81702380D01*
X108976190Y-82083333D01*
X109119047Y-82083333D01*
X109214285Y-82130952D01*
X109261904Y-82178571D01*
X109309523Y-82273809D01*
X109309523Y-82511904D01*
X109261904Y-82607142D01*
X109214285Y-82654761D01*
X109119047Y-82702380D01*
X108833333Y-82702380D01*
X108738095Y-82654761D01*
X108690476Y-82607142D01*
X109690476Y-81797619D02*
X109738095Y-81750000D01*
X109833333Y-81702380D01*
X110071428Y-81702380D01*
X110166666Y-81750000D01*
X110214285Y-81797619D01*
X110261904Y-81892857D01*
X110261904Y-81988095D01*
X110214285Y-82130952D01*
X109642857Y-82702380D01*
X110261904Y-82702380D01*
%TO.C,R31*%
X108357142Y-77802380D02*
X108023809Y-77326190D01*
X107785714Y-77802380D02*
X107785714Y-76802380D01*
X108166666Y-76802380D01*
X108261904Y-76850000D01*
X108309523Y-76897619D01*
X108357142Y-76992857D01*
X108357142Y-77135714D01*
X108309523Y-77230952D01*
X108261904Y-77278571D01*
X108166666Y-77326190D01*
X107785714Y-77326190D01*
X108690476Y-76802380D02*
X109309523Y-76802380D01*
X108976190Y-77183333D01*
X109119047Y-77183333D01*
X109214285Y-77230952D01*
X109261904Y-77278571D01*
X109309523Y-77373809D01*
X109309523Y-77611904D01*
X109261904Y-77707142D01*
X109214285Y-77754761D01*
X109119047Y-77802380D01*
X108833333Y-77802380D01*
X108738095Y-77754761D01*
X108690476Y-77707142D01*
X110261904Y-77802380D02*
X109690476Y-77802380D01*
X109976190Y-77802380D02*
X109976190Y-76802380D01*
X109880952Y-76945238D01*
X109785714Y-77040476D01*
X109690476Y-77088095D01*
%TO.C,R30*%
X105857142Y-86952380D02*
X105523809Y-86476190D01*
X105285714Y-86952380D02*
X105285714Y-85952380D01*
X105666666Y-85952380D01*
X105761904Y-86000000D01*
X105809523Y-86047619D01*
X105857142Y-86142857D01*
X105857142Y-86285714D01*
X105809523Y-86380952D01*
X105761904Y-86428571D01*
X105666666Y-86476190D01*
X105285714Y-86476190D01*
X106190476Y-85952380D02*
X106809523Y-85952380D01*
X106476190Y-86333333D01*
X106619047Y-86333333D01*
X106714285Y-86380952D01*
X106761904Y-86428571D01*
X106809523Y-86523809D01*
X106809523Y-86761904D01*
X106761904Y-86857142D01*
X106714285Y-86904761D01*
X106619047Y-86952380D01*
X106333333Y-86952380D01*
X106238095Y-86904761D01*
X106190476Y-86857142D01*
X107428571Y-85952380D02*
X107523809Y-85952380D01*
X107619047Y-86000000D01*
X107666666Y-86047619D01*
X107714285Y-86142857D01*
X107761904Y-86333333D01*
X107761904Y-86571428D01*
X107714285Y-86761904D01*
X107666666Y-86857142D01*
X107619047Y-86904761D01*
X107523809Y-86952380D01*
X107428571Y-86952380D01*
X107333333Y-86904761D01*
X107285714Y-86857142D01*
X107238095Y-86761904D01*
X107190476Y-86571428D01*
X107190476Y-86333333D01*
X107238095Y-86142857D01*
X107285714Y-86047619D01*
X107333333Y-86000000D01*
X107428571Y-85952380D01*
%TO.C,R29*%
X106357142Y-73702380D02*
X106023809Y-73226190D01*
X105785714Y-73702380D02*
X105785714Y-72702380D01*
X106166666Y-72702380D01*
X106261904Y-72750000D01*
X106309523Y-72797619D01*
X106357142Y-72892857D01*
X106357142Y-73035714D01*
X106309523Y-73130952D01*
X106261904Y-73178571D01*
X106166666Y-73226190D01*
X105785714Y-73226190D01*
X106738095Y-72797619D02*
X106785714Y-72750000D01*
X106880952Y-72702380D01*
X107119047Y-72702380D01*
X107214285Y-72750000D01*
X107261904Y-72797619D01*
X107309523Y-72892857D01*
X107309523Y-72988095D01*
X107261904Y-73130952D01*
X106690476Y-73702380D01*
X107309523Y-73702380D01*
X107785714Y-73702380D02*
X107976190Y-73702380D01*
X108071428Y-73654761D01*
X108119047Y-73607142D01*
X108214285Y-73464285D01*
X108261904Y-73273809D01*
X108261904Y-72892857D01*
X108214285Y-72797619D01*
X108166666Y-72750000D01*
X108071428Y-72702380D01*
X107880952Y-72702380D01*
X107785714Y-72750000D01*
X107738095Y-72797619D01*
X107690476Y-72892857D01*
X107690476Y-73130952D01*
X107738095Y-73226190D01*
X107785714Y-73273809D01*
X107880952Y-73321428D01*
X108071428Y-73321428D01*
X108166666Y-73273809D01*
X108214285Y-73226190D01*
X108261904Y-73130952D01*
%TO.C,R28*%
X97357142Y-73802380D02*
X97023809Y-73326190D01*
X96785714Y-73802380D02*
X96785714Y-72802380D01*
X97166666Y-72802380D01*
X97261904Y-72850000D01*
X97309523Y-72897619D01*
X97357142Y-72992857D01*
X97357142Y-73135714D01*
X97309523Y-73230952D01*
X97261904Y-73278571D01*
X97166666Y-73326190D01*
X96785714Y-73326190D01*
X97738095Y-72897619D02*
X97785714Y-72850000D01*
X97880952Y-72802380D01*
X98119047Y-72802380D01*
X98214285Y-72850000D01*
X98261904Y-72897619D01*
X98309523Y-72992857D01*
X98309523Y-73088095D01*
X98261904Y-73230952D01*
X97690476Y-73802380D01*
X98309523Y-73802380D01*
X98880952Y-73230952D02*
X98785714Y-73183333D01*
X98738095Y-73135714D01*
X98690476Y-73040476D01*
X98690476Y-72992857D01*
X98738095Y-72897619D01*
X98785714Y-72850000D01*
X98880952Y-72802380D01*
X99071428Y-72802380D01*
X99166666Y-72850000D01*
X99214285Y-72897619D01*
X99261904Y-72992857D01*
X99261904Y-73040476D01*
X99214285Y-73135714D01*
X99166666Y-73183333D01*
X99071428Y-73230952D01*
X98880952Y-73230952D01*
X98785714Y-73278571D01*
X98738095Y-73326190D01*
X98690476Y-73421428D01*
X98690476Y-73611904D01*
X98738095Y-73707142D01*
X98785714Y-73754761D01*
X98880952Y-73802380D01*
X99071428Y-73802380D01*
X99166666Y-73754761D01*
X99214285Y-73707142D01*
X99261904Y-73611904D01*
X99261904Y-73421428D01*
X99214285Y-73326190D01*
X99166666Y-73278571D01*
X99071428Y-73230952D01*
%TO.C,R27*%
X97107142Y-86952380D02*
X96773809Y-86476190D01*
X96535714Y-86952380D02*
X96535714Y-85952380D01*
X96916666Y-85952380D01*
X97011904Y-86000000D01*
X97059523Y-86047619D01*
X97107142Y-86142857D01*
X97107142Y-86285714D01*
X97059523Y-86380952D01*
X97011904Y-86428571D01*
X96916666Y-86476190D01*
X96535714Y-86476190D01*
X97488095Y-86047619D02*
X97535714Y-86000000D01*
X97630952Y-85952380D01*
X97869047Y-85952380D01*
X97964285Y-86000000D01*
X98011904Y-86047619D01*
X98059523Y-86142857D01*
X98059523Y-86238095D01*
X98011904Y-86380952D01*
X97440476Y-86952380D01*
X98059523Y-86952380D01*
X98392857Y-85952380D02*
X99059523Y-85952380D01*
X98630952Y-86952380D01*
%TO.C,R26*%
X95357142Y-77802380D02*
X95023809Y-77326190D01*
X94785714Y-77802380D02*
X94785714Y-76802380D01*
X95166666Y-76802380D01*
X95261904Y-76850000D01*
X95309523Y-76897619D01*
X95357142Y-76992857D01*
X95357142Y-77135714D01*
X95309523Y-77230952D01*
X95261904Y-77278571D01*
X95166666Y-77326190D01*
X94785714Y-77326190D01*
X95738095Y-76897619D02*
X95785714Y-76850000D01*
X95880952Y-76802380D01*
X96119047Y-76802380D01*
X96214285Y-76850000D01*
X96261904Y-76897619D01*
X96309523Y-76992857D01*
X96309523Y-77088095D01*
X96261904Y-77230952D01*
X95690476Y-77802380D01*
X96309523Y-77802380D01*
X97166666Y-76802380D02*
X96976190Y-76802380D01*
X96880952Y-76850000D01*
X96833333Y-76897619D01*
X96738095Y-77040476D01*
X96690476Y-77230952D01*
X96690476Y-77611904D01*
X96738095Y-77707142D01*
X96785714Y-77754761D01*
X96880952Y-77802380D01*
X97071428Y-77802380D01*
X97166666Y-77754761D01*
X97214285Y-77707142D01*
X97261904Y-77611904D01*
X97261904Y-77373809D01*
X97214285Y-77278571D01*
X97166666Y-77230952D01*
X97071428Y-77183333D01*
X96880952Y-77183333D01*
X96785714Y-77230952D01*
X96738095Y-77278571D01*
X96690476Y-77373809D01*
%TO.C,R25*%
X94857142Y-84452380D02*
X94523809Y-83976190D01*
X94285714Y-84452380D02*
X94285714Y-83452380D01*
X94666666Y-83452380D01*
X94761904Y-83500000D01*
X94809523Y-83547619D01*
X94857142Y-83642857D01*
X94857142Y-83785714D01*
X94809523Y-83880952D01*
X94761904Y-83928571D01*
X94666666Y-83976190D01*
X94285714Y-83976190D01*
X95238095Y-83547619D02*
X95285714Y-83500000D01*
X95380952Y-83452380D01*
X95619047Y-83452380D01*
X95714285Y-83500000D01*
X95761904Y-83547619D01*
X95809523Y-83642857D01*
X95809523Y-83738095D01*
X95761904Y-83880952D01*
X95190476Y-84452380D01*
X95809523Y-84452380D01*
X96714285Y-83452380D02*
X96238095Y-83452380D01*
X96190476Y-83928571D01*
X96238095Y-83880952D01*
X96333333Y-83833333D01*
X96571428Y-83833333D01*
X96666666Y-83880952D01*
X96714285Y-83928571D01*
X96761904Y-84023809D01*
X96761904Y-84261904D01*
X96714285Y-84357142D01*
X96666666Y-84404761D01*
X96571428Y-84452380D01*
X96333333Y-84452380D01*
X96238095Y-84404761D01*
X96190476Y-84357142D01*
%TO.C,R24*%
X108357142Y-64952380D02*
X108023809Y-64476190D01*
X107785714Y-64952380D02*
X107785714Y-63952380D01*
X108166666Y-63952380D01*
X108261904Y-64000000D01*
X108309523Y-64047619D01*
X108357142Y-64142857D01*
X108357142Y-64285714D01*
X108309523Y-64380952D01*
X108261904Y-64428571D01*
X108166666Y-64476190D01*
X107785714Y-64476190D01*
X108738095Y-64047619D02*
X108785714Y-64000000D01*
X108880952Y-63952380D01*
X109119047Y-63952380D01*
X109214285Y-64000000D01*
X109261904Y-64047619D01*
X109309523Y-64142857D01*
X109309523Y-64238095D01*
X109261904Y-64380952D01*
X108690476Y-64952380D01*
X109309523Y-64952380D01*
X110166666Y-64285714D02*
X110166666Y-64952380D01*
X109928571Y-63904761D02*
X109690476Y-64619047D01*
X110309523Y-64619047D01*
%TO.C,R23*%
X108107142Y-58802380D02*
X107773809Y-58326190D01*
X107535714Y-58802380D02*
X107535714Y-57802380D01*
X107916666Y-57802380D01*
X108011904Y-57850000D01*
X108059523Y-57897619D01*
X108107142Y-57992857D01*
X108107142Y-58135714D01*
X108059523Y-58230952D01*
X108011904Y-58278571D01*
X107916666Y-58326190D01*
X107535714Y-58326190D01*
X108488095Y-57897619D02*
X108535714Y-57850000D01*
X108630952Y-57802380D01*
X108869047Y-57802380D01*
X108964285Y-57850000D01*
X109011904Y-57897619D01*
X109059523Y-57992857D01*
X109059523Y-58088095D01*
X109011904Y-58230952D01*
X108440476Y-58802380D01*
X109059523Y-58802380D01*
X109392857Y-57802380D02*
X110011904Y-57802380D01*
X109678571Y-58183333D01*
X109821428Y-58183333D01*
X109916666Y-58230952D01*
X109964285Y-58278571D01*
X110011904Y-58373809D01*
X110011904Y-58611904D01*
X109964285Y-58707142D01*
X109916666Y-58754761D01*
X109821428Y-58802380D01*
X109535714Y-58802380D01*
X109440476Y-58754761D01*
X109392857Y-58707142D01*
%TO.C,R22*%
X109607142Y-69452380D02*
X109273809Y-68976190D01*
X109035714Y-69452380D02*
X109035714Y-68452380D01*
X109416666Y-68452380D01*
X109511904Y-68500000D01*
X109559523Y-68547619D01*
X109607142Y-68642857D01*
X109607142Y-68785714D01*
X109559523Y-68880952D01*
X109511904Y-68928571D01*
X109416666Y-68976190D01*
X109035714Y-68976190D01*
X109988095Y-68547619D02*
X110035714Y-68500000D01*
X110130952Y-68452380D01*
X110369047Y-68452380D01*
X110464285Y-68500000D01*
X110511904Y-68547619D01*
X110559523Y-68642857D01*
X110559523Y-68738095D01*
X110511904Y-68880952D01*
X109940476Y-69452380D01*
X110559523Y-69452380D01*
X110940476Y-68547619D02*
X110988095Y-68500000D01*
X111083333Y-68452380D01*
X111321428Y-68452380D01*
X111416666Y-68500000D01*
X111464285Y-68547619D01*
X111511904Y-68642857D01*
X111511904Y-68738095D01*
X111464285Y-68880952D01*
X110892857Y-69452380D01*
X111511904Y-69452380D01*
%TO.C,R21*%
X105357142Y-55202380D02*
X105023809Y-54726190D01*
X104785714Y-55202380D02*
X104785714Y-54202380D01*
X105166666Y-54202380D01*
X105261904Y-54250000D01*
X105309523Y-54297619D01*
X105357142Y-54392857D01*
X105357142Y-54535714D01*
X105309523Y-54630952D01*
X105261904Y-54678571D01*
X105166666Y-54726190D01*
X104785714Y-54726190D01*
X105738095Y-54297619D02*
X105785714Y-54250000D01*
X105880952Y-54202380D01*
X106119047Y-54202380D01*
X106214285Y-54250000D01*
X106261904Y-54297619D01*
X106309523Y-54392857D01*
X106309523Y-54488095D01*
X106261904Y-54630952D01*
X105690476Y-55202380D01*
X106309523Y-55202380D01*
X107261904Y-55202380D02*
X106690476Y-55202380D01*
X106976190Y-55202380D02*
X106976190Y-54202380D01*
X106880952Y-54345238D01*
X106785714Y-54440476D01*
X106690476Y-54488095D01*
%TO.C,R20*%
X97857142Y-55302380D02*
X97523809Y-54826190D01*
X97285714Y-55302380D02*
X97285714Y-54302380D01*
X97666666Y-54302380D01*
X97761904Y-54350000D01*
X97809523Y-54397619D01*
X97857142Y-54492857D01*
X97857142Y-54635714D01*
X97809523Y-54730952D01*
X97761904Y-54778571D01*
X97666666Y-54826190D01*
X97285714Y-54826190D01*
X98238095Y-54397619D02*
X98285714Y-54350000D01*
X98380952Y-54302380D01*
X98619047Y-54302380D01*
X98714285Y-54350000D01*
X98761904Y-54397619D01*
X98809523Y-54492857D01*
X98809523Y-54588095D01*
X98761904Y-54730952D01*
X98190476Y-55302380D01*
X98809523Y-55302380D01*
X99428571Y-54302380D02*
X99523809Y-54302380D01*
X99619047Y-54350000D01*
X99666666Y-54397619D01*
X99714285Y-54492857D01*
X99761904Y-54683333D01*
X99761904Y-54921428D01*
X99714285Y-55111904D01*
X99666666Y-55207142D01*
X99619047Y-55254761D01*
X99523809Y-55302380D01*
X99428571Y-55302380D01*
X99333333Y-55254761D01*
X99285714Y-55207142D01*
X99238095Y-55111904D01*
X99190476Y-54921428D01*
X99190476Y-54683333D01*
X99238095Y-54492857D01*
X99285714Y-54397619D01*
X99333333Y-54350000D01*
X99428571Y-54302380D01*
%TO.C,R19*%
X92857142Y-69452380D02*
X92523809Y-68976190D01*
X92285714Y-69452380D02*
X92285714Y-68452380D01*
X92666666Y-68452380D01*
X92761904Y-68500000D01*
X92809523Y-68547619D01*
X92857142Y-68642857D01*
X92857142Y-68785714D01*
X92809523Y-68880952D01*
X92761904Y-68928571D01*
X92666666Y-68976190D01*
X92285714Y-68976190D01*
X93809523Y-69452380D02*
X93238095Y-69452380D01*
X93523809Y-69452380D02*
X93523809Y-68452380D01*
X93428571Y-68595238D01*
X93333333Y-68690476D01*
X93238095Y-68738095D01*
X94285714Y-69452380D02*
X94476190Y-69452380D01*
X94571428Y-69404761D01*
X94619047Y-69357142D01*
X94714285Y-69214285D01*
X94761904Y-69023809D01*
X94761904Y-68642857D01*
X94714285Y-68547619D01*
X94666666Y-68500000D01*
X94571428Y-68452380D01*
X94380952Y-68452380D01*
X94285714Y-68500000D01*
X94238095Y-68547619D01*
X94190476Y-68642857D01*
X94190476Y-68880952D01*
X94238095Y-68976190D01*
X94285714Y-69023809D01*
X94380952Y-69071428D01*
X94571428Y-69071428D01*
X94666666Y-69023809D01*
X94714285Y-68976190D01*
X94761904Y-68880952D01*
%TO.C,R18*%
X94857142Y-58302380D02*
X94523809Y-57826190D01*
X94285714Y-58302380D02*
X94285714Y-57302380D01*
X94666666Y-57302380D01*
X94761904Y-57350000D01*
X94809523Y-57397619D01*
X94857142Y-57492857D01*
X94857142Y-57635714D01*
X94809523Y-57730952D01*
X94761904Y-57778571D01*
X94666666Y-57826190D01*
X94285714Y-57826190D01*
X95809523Y-58302380D02*
X95238095Y-58302380D01*
X95523809Y-58302380D02*
X95523809Y-57302380D01*
X95428571Y-57445238D01*
X95333333Y-57540476D01*
X95238095Y-57588095D01*
X96380952Y-57730952D02*
X96285714Y-57683333D01*
X96238095Y-57635714D01*
X96190476Y-57540476D01*
X96190476Y-57492857D01*
X96238095Y-57397619D01*
X96285714Y-57350000D01*
X96380952Y-57302380D01*
X96571428Y-57302380D01*
X96666666Y-57350000D01*
X96714285Y-57397619D01*
X96761904Y-57492857D01*
X96761904Y-57540476D01*
X96714285Y-57635714D01*
X96666666Y-57683333D01*
X96571428Y-57730952D01*
X96380952Y-57730952D01*
X96285714Y-57778571D01*
X96238095Y-57826190D01*
X96190476Y-57921428D01*
X96190476Y-58111904D01*
X96238095Y-58207142D01*
X96285714Y-58254761D01*
X96380952Y-58302380D01*
X96571428Y-58302380D01*
X96666666Y-58254761D01*
X96714285Y-58207142D01*
X96761904Y-58111904D01*
X96761904Y-57921428D01*
X96714285Y-57826190D01*
X96666666Y-57778571D01*
X96571428Y-57730952D01*
%TO.C,R17*%
X94607142Y-65702380D02*
X94273809Y-65226190D01*
X94035714Y-65702380D02*
X94035714Y-64702380D01*
X94416666Y-64702380D01*
X94511904Y-64750000D01*
X94559523Y-64797619D01*
X94607142Y-64892857D01*
X94607142Y-65035714D01*
X94559523Y-65130952D01*
X94511904Y-65178571D01*
X94416666Y-65226190D01*
X94035714Y-65226190D01*
X95559523Y-65702380D02*
X94988095Y-65702380D01*
X95273809Y-65702380D02*
X95273809Y-64702380D01*
X95178571Y-64845238D01*
X95083333Y-64940476D01*
X94988095Y-64988095D01*
X95892857Y-64702380D02*
X96559523Y-64702380D01*
X96130952Y-65702380D01*
%TO.C,R16*%
X108357142Y-46702380D02*
X108023809Y-46226190D01*
X107785714Y-46702380D02*
X107785714Y-45702380D01*
X108166666Y-45702380D01*
X108261904Y-45750000D01*
X108309523Y-45797619D01*
X108357142Y-45892857D01*
X108357142Y-46035714D01*
X108309523Y-46130952D01*
X108261904Y-46178571D01*
X108166666Y-46226190D01*
X107785714Y-46226190D01*
X109309523Y-46702380D02*
X108738095Y-46702380D01*
X109023809Y-46702380D02*
X109023809Y-45702380D01*
X108928571Y-45845238D01*
X108833333Y-45940476D01*
X108738095Y-45988095D01*
X110166666Y-45702380D02*
X109976190Y-45702380D01*
X109880952Y-45750000D01*
X109833333Y-45797619D01*
X109738095Y-45940476D01*
X109690476Y-46130952D01*
X109690476Y-46511904D01*
X109738095Y-46607142D01*
X109785714Y-46654761D01*
X109880952Y-46702380D01*
X110071428Y-46702380D01*
X110166666Y-46654761D01*
X110214285Y-46607142D01*
X110261904Y-46511904D01*
X110261904Y-46273809D01*
X110214285Y-46178571D01*
X110166666Y-46130952D01*
X110071428Y-46083333D01*
X109880952Y-46083333D01*
X109785714Y-46130952D01*
X109738095Y-46178571D01*
X109690476Y-46273809D01*
%TO.C,R15*%
X108332142Y-40802380D02*
X107998809Y-40326190D01*
X107760714Y-40802380D02*
X107760714Y-39802380D01*
X108141666Y-39802380D01*
X108236904Y-39850000D01*
X108284523Y-39897619D01*
X108332142Y-39992857D01*
X108332142Y-40135714D01*
X108284523Y-40230952D01*
X108236904Y-40278571D01*
X108141666Y-40326190D01*
X107760714Y-40326190D01*
X109284523Y-40802380D02*
X108713095Y-40802380D01*
X108998809Y-40802380D02*
X108998809Y-39802380D01*
X108903571Y-39945238D01*
X108808333Y-40040476D01*
X108713095Y-40088095D01*
X110189285Y-39802380D02*
X109713095Y-39802380D01*
X109665476Y-40278571D01*
X109713095Y-40230952D01*
X109808333Y-40183333D01*
X110046428Y-40183333D01*
X110141666Y-40230952D01*
X110189285Y-40278571D01*
X110236904Y-40373809D01*
X110236904Y-40611904D01*
X110189285Y-40707142D01*
X110141666Y-40754761D01*
X110046428Y-40802380D01*
X109808333Y-40802380D01*
X109713095Y-40754761D01*
X109665476Y-40707142D01*
%TO.C,R14*%
X108857142Y-52452380D02*
X108523809Y-51976190D01*
X108285714Y-52452380D02*
X108285714Y-51452380D01*
X108666666Y-51452380D01*
X108761904Y-51500000D01*
X108809523Y-51547619D01*
X108857142Y-51642857D01*
X108857142Y-51785714D01*
X108809523Y-51880952D01*
X108761904Y-51928571D01*
X108666666Y-51976190D01*
X108285714Y-51976190D01*
X109809523Y-52452380D02*
X109238095Y-52452380D01*
X109523809Y-52452380D02*
X109523809Y-51452380D01*
X109428571Y-51595238D01*
X109333333Y-51690476D01*
X109238095Y-51738095D01*
X110666666Y-51785714D02*
X110666666Y-52452380D01*
X110428571Y-51404761D02*
X110190476Y-52119047D01*
X110809523Y-52119047D01*
%TO.C,R13*%
X105357142Y-37702380D02*
X105023809Y-37226190D01*
X104785714Y-37702380D02*
X104785714Y-36702380D01*
X105166666Y-36702380D01*
X105261904Y-36750000D01*
X105309523Y-36797619D01*
X105357142Y-36892857D01*
X105357142Y-37035714D01*
X105309523Y-37130952D01*
X105261904Y-37178571D01*
X105166666Y-37226190D01*
X104785714Y-37226190D01*
X106309523Y-37702380D02*
X105738095Y-37702380D01*
X106023809Y-37702380D02*
X106023809Y-36702380D01*
X105928571Y-36845238D01*
X105833333Y-36940476D01*
X105738095Y-36988095D01*
X106642857Y-36702380D02*
X107261904Y-36702380D01*
X106928571Y-37083333D01*
X107071428Y-37083333D01*
X107166666Y-37130952D01*
X107214285Y-37178571D01*
X107261904Y-37273809D01*
X107261904Y-37511904D01*
X107214285Y-37607142D01*
X107166666Y-37654761D01*
X107071428Y-37702380D01*
X106785714Y-37702380D01*
X106690476Y-37654761D01*
X106642857Y-37607142D01*
%TO.C,R12*%
X97357142Y-37802380D02*
X97023809Y-37326190D01*
X96785714Y-37802380D02*
X96785714Y-36802380D01*
X97166666Y-36802380D01*
X97261904Y-36850000D01*
X97309523Y-36897619D01*
X97357142Y-36992857D01*
X97357142Y-37135714D01*
X97309523Y-37230952D01*
X97261904Y-37278571D01*
X97166666Y-37326190D01*
X96785714Y-37326190D01*
X98309523Y-37802380D02*
X97738095Y-37802380D01*
X98023809Y-37802380D02*
X98023809Y-36802380D01*
X97928571Y-36945238D01*
X97833333Y-37040476D01*
X97738095Y-37088095D01*
X98690476Y-36897619D02*
X98738095Y-36850000D01*
X98833333Y-36802380D01*
X99071428Y-36802380D01*
X99166666Y-36850000D01*
X99214285Y-36897619D01*
X99261904Y-36992857D01*
X99261904Y-37088095D01*
X99214285Y-37230952D01*
X98642857Y-37802380D01*
X99261904Y-37802380D01*
%TO.C,R11*%
X93107142Y-52452380D02*
X92773809Y-51976190D01*
X92535714Y-52452380D02*
X92535714Y-51452380D01*
X92916666Y-51452380D01*
X93011904Y-51500000D01*
X93059523Y-51547619D01*
X93107142Y-51642857D01*
X93107142Y-51785714D01*
X93059523Y-51880952D01*
X93011904Y-51928571D01*
X92916666Y-51976190D01*
X92535714Y-51976190D01*
X94059523Y-52452380D02*
X93488095Y-52452380D01*
X93773809Y-52452380D02*
X93773809Y-51452380D01*
X93678571Y-51595238D01*
X93583333Y-51690476D01*
X93488095Y-51738095D01*
X95011904Y-52452380D02*
X94440476Y-52452380D01*
X94726190Y-52452380D02*
X94726190Y-51452380D01*
X94630952Y-51595238D01*
X94535714Y-51690476D01*
X94440476Y-51738095D01*
%TO.C,R10*%
X94357142Y-40802380D02*
X94023809Y-40326190D01*
X93785714Y-40802380D02*
X93785714Y-39802380D01*
X94166666Y-39802380D01*
X94261904Y-39850000D01*
X94309523Y-39897619D01*
X94357142Y-39992857D01*
X94357142Y-40135714D01*
X94309523Y-40230952D01*
X94261904Y-40278571D01*
X94166666Y-40326190D01*
X93785714Y-40326190D01*
X95309523Y-40802380D02*
X94738095Y-40802380D01*
X95023809Y-40802380D02*
X95023809Y-39802380D01*
X94928571Y-39945238D01*
X94833333Y-40040476D01*
X94738095Y-40088095D01*
X95928571Y-39802380D02*
X96023809Y-39802380D01*
X96119047Y-39850000D01*
X96166666Y-39897619D01*
X96214285Y-39992857D01*
X96261904Y-40183333D01*
X96261904Y-40421428D01*
X96214285Y-40611904D01*
X96166666Y-40707142D01*
X96119047Y-40754761D01*
X96023809Y-40802380D01*
X95928571Y-40802380D01*
X95833333Y-40754761D01*
X95785714Y-40707142D01*
X95738095Y-40611904D01*
X95690476Y-40421428D01*
X95690476Y-40183333D01*
X95738095Y-39992857D01*
X95785714Y-39897619D01*
X95833333Y-39850000D01*
X95928571Y-39802380D01*
%TO.C,R9*%
X94333333Y-48202380D02*
X94000000Y-47726190D01*
X93761904Y-48202380D02*
X93761904Y-47202380D01*
X94142857Y-47202380D01*
X94238095Y-47250000D01*
X94285714Y-47297619D01*
X94333333Y-47392857D01*
X94333333Y-47535714D01*
X94285714Y-47630952D01*
X94238095Y-47678571D01*
X94142857Y-47726190D01*
X93761904Y-47726190D01*
X94809523Y-48202380D02*
X95000000Y-48202380D01*
X95095238Y-48154761D01*
X95142857Y-48107142D01*
X95238095Y-47964285D01*
X95285714Y-47773809D01*
X95285714Y-47392857D01*
X95238095Y-47297619D01*
X95190476Y-47250000D01*
X95095238Y-47202380D01*
X94904761Y-47202380D01*
X94809523Y-47250000D01*
X94761904Y-47297619D01*
X94714285Y-47392857D01*
X94714285Y-47630952D01*
X94761904Y-47726190D01*
X94809523Y-47773809D01*
X94904761Y-47821428D01*
X95095238Y-47821428D01*
X95190476Y-47773809D01*
X95238095Y-47726190D01*
X95285714Y-47630952D01*
%TO.C,U1*%
D13*
X101412380Y-26294523D02*
X101412380Y-27322619D01*
X101472857Y-27443571D01*
X101533333Y-27504047D01*
X101654285Y-27564523D01*
X101896190Y-27564523D01*
X102017142Y-27504047D01*
X102077619Y-27443571D01*
X102138095Y-27322619D01*
X102138095Y-26294523D01*
X103408095Y-27564523D02*
X102682380Y-27564523D01*
X103045238Y-27564523D02*
X103045238Y-26294523D01*
X102924285Y-26475952D01*
X102803333Y-26596904D01*
X102682380Y-26657380D01*
%TO.C,R8*%
D12*
X108563333Y-28452380D02*
X108230000Y-27976190D01*
X107991904Y-28452380D02*
X107991904Y-27452380D01*
X108372857Y-27452380D01*
X108468095Y-27500000D01*
X108515714Y-27547619D01*
X108563333Y-27642857D01*
X108563333Y-27785714D01*
X108515714Y-27880952D01*
X108468095Y-27928571D01*
X108372857Y-27976190D01*
X107991904Y-27976190D01*
X109134761Y-27880952D02*
X109039523Y-27833333D01*
X108991904Y-27785714D01*
X108944285Y-27690476D01*
X108944285Y-27642857D01*
X108991904Y-27547619D01*
X109039523Y-27500000D01*
X109134761Y-27452380D01*
X109325238Y-27452380D01*
X109420476Y-27500000D01*
X109468095Y-27547619D01*
X109515714Y-27642857D01*
X109515714Y-27690476D01*
X109468095Y-27785714D01*
X109420476Y-27833333D01*
X109325238Y-27880952D01*
X109134761Y-27880952D01*
X109039523Y-27928571D01*
X108991904Y-27976190D01*
X108944285Y-28071428D01*
X108944285Y-28261904D01*
X108991904Y-28357142D01*
X109039523Y-28404761D01*
X109134761Y-28452380D01*
X109325238Y-28452380D01*
X109420476Y-28404761D01*
X109468095Y-28357142D01*
X109515714Y-28261904D01*
X109515714Y-28071428D01*
X109468095Y-27976190D01*
X109420476Y-27928571D01*
X109325238Y-27880952D01*
%TO.C,R7*%
X108833333Y-33702380D02*
X108500000Y-33226190D01*
X108261904Y-33702380D02*
X108261904Y-32702380D01*
X108642857Y-32702380D01*
X108738095Y-32750000D01*
X108785714Y-32797619D01*
X108833333Y-32892857D01*
X108833333Y-33035714D01*
X108785714Y-33130952D01*
X108738095Y-33178571D01*
X108642857Y-33226190D01*
X108261904Y-33226190D01*
X109166666Y-32702380D02*
X109833333Y-32702380D01*
X109404761Y-33702380D01*
%TO.C,R6*%
X108833333Y-23252380D02*
X108500000Y-22776190D01*
X108261904Y-23252380D02*
X108261904Y-22252380D01*
X108642857Y-22252380D01*
X108738095Y-22300000D01*
X108785714Y-22347619D01*
X108833333Y-22442857D01*
X108833333Y-22585714D01*
X108785714Y-22680952D01*
X108738095Y-22728571D01*
X108642857Y-22776190D01*
X108261904Y-22776190D01*
X109690476Y-22252380D02*
X109500000Y-22252380D01*
X109404761Y-22300000D01*
X109357142Y-22347619D01*
X109261904Y-22490476D01*
X109214285Y-22680952D01*
X109214285Y-23061904D01*
X109261904Y-23157142D01*
X109309523Y-23204761D01*
X109404761Y-23252380D01*
X109595238Y-23252380D01*
X109690476Y-23204761D01*
X109738095Y-23157142D01*
X109785714Y-23061904D01*
X109785714Y-22823809D01*
X109738095Y-22728571D01*
X109690476Y-22680952D01*
X109595238Y-22633333D01*
X109404761Y-22633333D01*
X109309523Y-22680952D01*
X109261904Y-22728571D01*
X109214285Y-22823809D01*
%TO.C,R5*%
X106083333Y-19452380D02*
X105750000Y-18976190D01*
X105511904Y-19452380D02*
X105511904Y-18452380D01*
X105892857Y-18452380D01*
X105988095Y-18500000D01*
X106035714Y-18547619D01*
X106083333Y-18642857D01*
X106083333Y-18785714D01*
X106035714Y-18880952D01*
X105988095Y-18928571D01*
X105892857Y-18976190D01*
X105511904Y-18976190D01*
X106988095Y-18452380D02*
X106511904Y-18452380D01*
X106464285Y-18928571D01*
X106511904Y-18880952D01*
X106607142Y-18833333D01*
X106845238Y-18833333D01*
X106940476Y-18880952D01*
X106988095Y-18928571D01*
X107035714Y-19023809D01*
X107035714Y-19261904D01*
X106988095Y-19357142D01*
X106940476Y-19404761D01*
X106845238Y-19452380D01*
X106607142Y-19452380D01*
X106511904Y-19404761D01*
X106464285Y-19357142D01*
%TO.C,R4*%
X95863333Y-23252380D02*
X95530000Y-22776190D01*
X95291904Y-23252380D02*
X95291904Y-22252380D01*
X95672857Y-22252380D01*
X95768095Y-22300000D01*
X95815714Y-22347619D01*
X95863333Y-22442857D01*
X95863333Y-22585714D01*
X95815714Y-22680952D01*
X95768095Y-22728571D01*
X95672857Y-22776190D01*
X95291904Y-22776190D01*
X96720476Y-22585714D02*
X96720476Y-23252380D01*
X96482380Y-22204761D02*
X96244285Y-22919047D01*
X96863333Y-22919047D01*
%TO.C,R3*%
X95333333Y-29702380D02*
X95000000Y-29226190D01*
X94761904Y-29702380D02*
X94761904Y-28702380D01*
X95142857Y-28702380D01*
X95238095Y-28750000D01*
X95285714Y-28797619D01*
X95333333Y-28892857D01*
X95333333Y-29035714D01*
X95285714Y-29130952D01*
X95238095Y-29178571D01*
X95142857Y-29226190D01*
X94761904Y-29226190D01*
X95666666Y-28702380D02*
X96285714Y-28702380D01*
X95952380Y-29083333D01*
X96095238Y-29083333D01*
X96190476Y-29130952D01*
X96238095Y-29178571D01*
X96285714Y-29273809D01*
X96285714Y-29511904D01*
X96238095Y-29607142D01*
X96190476Y-29654761D01*
X96095238Y-29702380D01*
X95809523Y-29702380D01*
X95714285Y-29654761D01*
X95666666Y-29607142D01*
%TO.C,R2*%
X98648333Y-19442380D02*
X98315000Y-18966190D01*
X98076904Y-19442380D02*
X98076904Y-18442380D01*
X98457857Y-18442380D01*
X98553095Y-18490000D01*
X98600714Y-18537619D01*
X98648333Y-18632857D01*
X98648333Y-18775714D01*
X98600714Y-18870952D01*
X98553095Y-18918571D01*
X98457857Y-18966190D01*
X98076904Y-18966190D01*
X99029285Y-18537619D02*
X99076904Y-18490000D01*
X99172142Y-18442380D01*
X99410238Y-18442380D01*
X99505476Y-18490000D01*
X99553095Y-18537619D01*
X99600714Y-18632857D01*
X99600714Y-18728095D01*
X99553095Y-18870952D01*
X98981666Y-19442380D01*
X99600714Y-19442380D01*
%TO.C,R1*%
X95583333Y-33952380D02*
X95250000Y-33476190D01*
X95011904Y-33952380D02*
X95011904Y-32952380D01*
X95392857Y-32952380D01*
X95488095Y-33000000D01*
X95535714Y-33047619D01*
X95583333Y-33142857D01*
X95583333Y-33285714D01*
X95535714Y-33380952D01*
X95488095Y-33428571D01*
X95392857Y-33476190D01*
X95011904Y-33476190D01*
X96535714Y-33952380D02*
X95964285Y-33952380D01*
X96250000Y-33952380D02*
X96250000Y-32952380D01*
X96154761Y-33095238D01*
X96059523Y-33190476D01*
X95964285Y-33238095D01*
%TO.C,J2*%
D13*
X141826666Y-26554523D02*
X141826666Y-27461666D01*
X141766190Y-27643095D01*
X141645238Y-27764047D01*
X141463809Y-27824523D01*
X141342857Y-27824523D01*
X142370952Y-26675476D02*
X142431428Y-26615000D01*
X142552380Y-26554523D01*
X142854761Y-26554523D01*
X142975714Y-26615000D01*
X143036190Y-26675476D01*
X143096666Y-26796428D01*
X143096666Y-26917380D01*
X143036190Y-27098809D01*
X142310476Y-27824523D01*
X143096666Y-27824523D01*
%TO.C,J6*%
X141826666Y-45054523D02*
X141826666Y-45961666D01*
X141766190Y-46143095D01*
X141645238Y-46264047D01*
X141463809Y-46324523D01*
X141342857Y-46324523D01*
X142975714Y-45054523D02*
X142733809Y-45054523D01*
X142612857Y-45115000D01*
X142552380Y-45175476D01*
X142431428Y-45356904D01*
X142370952Y-45598809D01*
X142370952Y-46082619D01*
X142431428Y-46203571D01*
X142491904Y-46264047D01*
X142612857Y-46324523D01*
X142854761Y-46324523D01*
X142975714Y-46264047D01*
X143036190Y-46203571D01*
X143096666Y-46082619D01*
X143096666Y-45780238D01*
X143036190Y-45659285D01*
X142975714Y-45598809D01*
X142854761Y-45538333D01*
X142612857Y-45538333D01*
X142491904Y-45598809D01*
X142431428Y-45659285D01*
X142370952Y-45780238D01*
%TO.C,J10*%
X141221904Y-63304523D02*
X141221904Y-64211666D01*
X141161428Y-64393095D01*
X141040476Y-64514047D01*
X140859047Y-64574523D01*
X140738095Y-64574523D01*
X142491904Y-64574523D02*
X141766190Y-64574523D01*
X142129047Y-64574523D02*
X142129047Y-63304523D01*
X142008095Y-63485952D01*
X141887142Y-63606904D01*
X141766190Y-63667380D01*
X143278095Y-63304523D02*
X143399047Y-63304523D01*
X143520000Y-63365000D01*
X143580476Y-63425476D01*
X143640952Y-63546428D01*
X143701428Y-63788333D01*
X143701428Y-64090714D01*
X143640952Y-64332619D01*
X143580476Y-64453571D01*
X143520000Y-64514047D01*
X143399047Y-64574523D01*
X143278095Y-64574523D01*
X143157142Y-64514047D01*
X143096666Y-64453571D01*
X143036190Y-64332619D01*
X142975714Y-64090714D01*
X142975714Y-63788333D01*
X143036190Y-63546428D01*
X143096666Y-63425476D01*
X143157142Y-63365000D01*
X143278095Y-63304523D01*
%TO.C,J14*%
X141221904Y-81304523D02*
X141221904Y-82211666D01*
X141161428Y-82393095D01*
X141040476Y-82514047D01*
X140859047Y-82574523D01*
X140738095Y-82574523D01*
X142491904Y-82574523D02*
X141766190Y-82574523D01*
X142129047Y-82574523D02*
X142129047Y-81304523D01*
X142008095Y-81485952D01*
X141887142Y-81606904D01*
X141766190Y-81667380D01*
X143580476Y-81727857D02*
X143580476Y-82574523D01*
X143278095Y-81244047D02*
X142975714Y-82151190D01*
X143761904Y-82151190D01*
%TD*%
M02*
