M48
; DRILL file {KiCad (5.1.7)-1} date 11/01/20 20:21:35
; FORMAT={-:-/ absolute / metric / decimal}
; #@! TF.CreationDate,2020-11-01T20:21:35+01:00
; #@! TF.GenerationSoftware,Kicad,Pcbnew,(5.1.7)-1
; #@! TF.FileFunction,Plated,1,2,PTH
FMAT,2
METRIC
T1C0.400
T2C1.000
T3C1.100
T4C1.290
T5C2.000
%
G90
G05
T1
X50.75Y-62.5
X65.0Y-25.0
X76.0Y-40.3
X78.0Y-40.5
X81.0Y-45.5
X83.5Y-38.0
X83.5Y-68.0
X83.5Y-76.5
X84.0Y-50.5
X84.5Y-58.0
X84.5Y-74.0
X85.0Y-38.0
X85.0Y-86.5
X85.3Y-31.5
X85.5Y-21.0
X86.0Y-19.5
X86.1Y-57.5
X86.1Y-75.5
X86.5Y-32.5
X86.5Y-53.0
X86.5Y-56.0
X86.5Y-86.5
X86.675Y-37.621
X87.0Y-50.5
X87.5Y-68.0
X87.5Y-75.0
X90.75Y-35.5
X92.0Y-24.25
X92.0Y-64.5
X92.0Y-47.0
X92.257Y-82.756
X92.5Y-42.0
X92.75Y-60.25
X93.0Y-43.5
X93.25Y-78.75
X93.5Y-24.5
X93.5Y-80.0
X93.525Y-27.006
X95.0Y-61.5
X97.5Y-40.75
X97.5Y-50.0
X97.5Y-66.75
X98.0Y-22.5
X98.0Y-31.25
X98.0Y-77.0
X98.0Y-86.25
X98.25Y-58.0
X106.75Y-25.635
X107.0Y-61.75
X108.0Y-44.0
X109.25Y-80.635
T2
X117.29Y-66.07
X126.07Y-57.29
X135.54Y-66.07
X144.32Y-57.29
X135.54Y-47.82
X144.32Y-39.04
X153.79Y-47.82
X162.57Y-39.04
X135.54Y-84.07
X144.32Y-75.29
X135.54Y-29.32
X144.32Y-20.54
X40.0Y-18.0
X40.0Y-20.54
X40.0Y-23.08
X40.0Y-25.62
X40.0Y-28.16
X40.0Y-30.7
X40.0Y-33.24
X40.0Y-35.78
X40.0Y-38.32
X40.0Y-40.86
X40.0Y-43.4
X40.0Y-45.94
X40.0Y-48.48
X40.0Y-51.02
X40.0Y-53.56
X55.24Y-18.0
X55.24Y-20.54
X55.24Y-23.08
X55.24Y-25.62
X55.24Y-28.16
X55.24Y-30.7
X55.24Y-33.24
X55.24Y-35.78
X55.24Y-38.32
X55.24Y-40.86
X55.24Y-43.4
X55.24Y-45.94
X55.24Y-48.48
X55.24Y-51.02
X55.24Y-53.56
X171.29Y-47.82
X180.07Y-39.04
X47.0Y-83.0
X49.54Y-83.0
X171.29Y-84.07
X180.07Y-75.29
X117.54Y-47.82
X126.32Y-39.04
X153.79Y-66.07
X162.57Y-57.29
X117.29Y-84.07
X126.07Y-75.29
X66.13Y-37.0
X68.67Y-37.0
X71.21Y-37.0
X73.75Y-37.0
X171.29Y-29.32
X180.07Y-20.54
X153.79Y-84.07
X162.57Y-75.29
X117.79Y-29.32
X126.57Y-20.54
X153.79Y-29.32
X162.57Y-20.54
X171.29Y-66.07
X180.07Y-57.29
T3
X65.46Y-43.22
X65.46Y-45.76
X65.46Y-48.3
X65.46Y-50.84
X65.46Y-53.38
X65.46Y-55.92
X65.46Y-58.46
X65.46Y-61.0
X68.0Y-43.22
X68.0Y-45.76
X68.0Y-48.3
X68.0Y-50.84
X68.0Y-53.38
X68.0Y-55.92
X68.0Y-58.46
X68.0Y-61.0
T4
X59.25Y-38.75
X59.25Y-41.29
X59.25Y-43.83
T5
X119.0Y-77.0
X123.11Y-88.05
X130.05Y-81.11
X173.0Y-22.25
X177.11Y-33.3
X184.05Y-26.36
X155.5Y-77.0
X159.61Y-88.05
X166.55Y-81.11
X119.5Y-22.25
X123.61Y-33.3
X130.55Y-26.36
X155.5Y-22.25
X159.61Y-33.3
X166.55Y-26.36
X173.0Y-59.0
X177.11Y-70.05
X184.05Y-63.11
X119.0Y-59.0
X123.11Y-70.05
X130.05Y-63.11
X137.25Y-59.0
X141.36Y-70.05
X148.3Y-63.11
X137.25Y-40.75
X141.36Y-51.8
X148.3Y-44.86
X155.5Y-40.75
X159.61Y-51.8
X166.55Y-44.86
X137.25Y-77.0
X141.36Y-88.05
X148.3Y-81.11
X137.25Y-22.25
X141.36Y-33.3
X148.3Y-26.36
X173.0Y-40.75
X177.11Y-51.8
X184.05Y-44.86
X173.0Y-77.0
X177.11Y-88.05
X184.05Y-81.11
X119.25Y-40.75
X123.36Y-51.8
X130.3Y-44.86
X155.5Y-59.0
X159.61Y-70.05
X166.55Y-63.11
T0
M30
