M48
; DRILL file {KiCad (5.1.7)-1} date 10/31/20 18:56:56
; FORMAT={-:-/ absolute / metric / decimal}
; #@! TF.CreationDate,2020-10-31T18:56:56+01:00
; #@! TF.GenerationSoftware,Kicad,Pcbnew,(5.1.7)-1
; #@! TF.FileFunction,Plated,1,2,PTH
FMAT,2
METRIC
T1C0.400
T2C1.000
T3C1.100
T4C1.290
T5C2.000
%
G90
G05
T1
X51.5Y-64.5
X65.0Y-25.0
X75.0Y-39.5
X78.0Y-40.5
X84.5Y-39.0
X84.5Y-58.0
X84.5Y-74.0
X85.0Y-86.5
X85.3Y-31.5
X85.5Y-21.0
X86.0Y-19.5
X86.025Y-39.0
X86.1Y-57.5
X86.1Y-75.5
X86.5Y-32.5
X86.5Y-56.0
X86.5Y-86.5
X87.0Y-50.5
X87.5Y-68.0
X87.5Y-75.0
X91.0Y-36.5
X93.485Y-45.515
X93.498Y-81.515
X93.507Y-27.006
X93.507Y-63.006
X97.5Y-40.75
X97.5Y-50.0
X97.5Y-66.75
X98.0Y-22.5
X98.0Y-31.25
X98.0Y-77.0
X98.0Y-86.25
X98.25Y-58.0
T2
X135.54Y-29.32
X144.32Y-20.54
X117.79Y-29.32
X126.57Y-20.54
X47.5Y-83.0
X50.04Y-83.0
X153.79Y-29.32
X162.57Y-20.54
X153.79Y-47.82
X162.57Y-39.04
X135.54Y-47.82
X144.32Y-39.04
X153.79Y-66.07
X162.57Y-57.29
X135.54Y-66.07
X144.32Y-57.29
X40.0Y-18.0
X40.0Y-20.54
X40.0Y-23.08
X40.0Y-25.62
X40.0Y-28.16
X40.0Y-30.7
X40.0Y-33.24
X40.0Y-35.78
X40.0Y-38.32
X40.0Y-40.86
X40.0Y-43.4
X40.0Y-45.94
X40.0Y-48.48
X40.0Y-51.02
X40.0Y-53.56
X55.24Y-18.0
X55.24Y-20.54
X55.24Y-23.08
X55.24Y-25.62
X55.24Y-28.16
X55.24Y-30.7
X55.24Y-33.24
X55.24Y-35.78
X55.24Y-38.32
X55.24Y-40.86
X55.24Y-43.4
X55.24Y-45.94
X55.24Y-48.48
X55.24Y-51.02
X55.24Y-53.56
X171.29Y-29.32
X180.07Y-20.54
X117.54Y-47.82
X126.32Y-39.04
X171.29Y-66.07
X180.07Y-57.29
X153.79Y-84.07
X162.57Y-75.29
X171.29Y-84.07
X180.07Y-75.29
X117.29Y-66.07
X126.07Y-57.29
X65.21Y-36.75
X67.75Y-36.75
X135.54Y-84.07
X144.32Y-75.29
X171.29Y-47.82
X180.07Y-39.04
X117.29Y-84.07
X126.07Y-75.29
T3
X65.46Y-43.22
X65.46Y-45.76
X65.46Y-48.3
X65.46Y-50.84
X65.46Y-53.38
X65.46Y-55.92
X65.46Y-58.46
X65.46Y-61.0
X68.0Y-43.22
X68.0Y-45.76
X68.0Y-48.3
X68.0Y-50.84
X68.0Y-53.38
X68.0Y-55.92
X68.0Y-58.46
X68.0Y-61.0
T4
X59.25Y-38.75
X59.25Y-41.29
X59.25Y-43.83
T5
X137.25Y-59.0
X141.36Y-70.05
X148.3Y-63.11
X173.0Y-22.25
X177.11Y-33.3
X184.05Y-26.36
X119.25Y-40.75
X123.36Y-51.8
X130.3Y-44.86
X173.0Y-59.0
X177.11Y-70.05
X184.05Y-63.11
X155.5Y-77.0
X159.61Y-88.05
X166.55Y-81.11
X173.0Y-77.0
X177.11Y-88.05
X184.05Y-81.11
X119.0Y-59.0
X123.11Y-70.05
X130.05Y-63.11
X137.25Y-77.0
X141.36Y-88.05
X148.3Y-81.11
X173.0Y-40.75
X177.11Y-51.8
X184.05Y-44.86
X119.0Y-77.0
X123.11Y-88.05
X130.05Y-81.11
X137.25Y-22.25
X141.36Y-33.3
X148.3Y-26.36
X119.5Y-22.25
X123.61Y-33.3
X130.55Y-26.36
X155.5Y-22.25
X159.61Y-33.3
X166.55Y-26.36
X155.5Y-40.75
X159.61Y-51.8
X166.55Y-44.86
X137.25Y-40.75
X141.36Y-51.8
X148.3Y-44.86
X155.5Y-59.0
X159.61Y-70.05
X166.55Y-63.11
T0
M30
