%TF.GenerationSoftware,KiCad,Pcbnew,(5.1.7)-1*%
%TF.CreationDate,2020-10-31T18:56:13+01:00*%
%TF.ProjectId,MidiToCV,4d696469-546f-4435-962e-6b696361645f,rev?*%
%TF.SameCoordinates,Original*%
%TF.FileFunction,Soldermask,Top*%
%TF.FilePolarity,Negative*%
%FSLAX46Y46*%
G04 Gerber Fmt 4.6, Leading zero omitted, Abs format (unit mm)*
G04 Created by KiCad (PCBNEW (5.1.7)-1) date 2020-10-31 18:56:13*
%MOMM*%
%LPD*%
G01*
G04 APERTURE LIST*
%ADD10C,1.500000*%
%ADD11C,3.000000*%
%ADD12C,1.935000*%
%ADD13R,1.935000X1.935000*%
%ADD14O,1.700000X1.700000*%
%ADD15R,1.700000X1.700000*%
%ADD16R,1.780000X2.000000*%
%ADD17C,1.650000*%
%ADD18R,1.650000X1.650000*%
%ADD19R,0.900000X0.800000*%
%ADD20R,0.450000X1.475000*%
%ADD21R,5.020000X3.250000*%
%ADD22R,1.525000X0.650000*%
%ADD23O,1.600000X1.600000*%
%ADD24R,1.600000X1.600000*%
G04 APERTURE END LIST*
D10*
%TO.C,J14*%
X135540000Y-84070000D03*
D11*
X141360000Y-88050000D03*
X148300000Y-81110000D03*
D10*
X144320000Y-75290000D03*
D11*
X137250000Y-77000000D03*
%TD*%
D10*
%TO.C,J10*%
X135540000Y-66070000D03*
D11*
X141360000Y-70050000D03*
X148300000Y-63110000D03*
D10*
X144320000Y-57290000D03*
D11*
X137250000Y-59000000D03*
%TD*%
D10*
%TO.C,J6*%
X135540000Y-47820000D03*
D11*
X141360000Y-51800000D03*
X148300000Y-44860000D03*
D10*
X144320000Y-39040000D03*
D11*
X137250000Y-40750000D03*
%TD*%
D10*
%TO.C,J2*%
X135540000Y-29320000D03*
D11*
X141360000Y-33300000D03*
X148300000Y-26360000D03*
D10*
X144320000Y-20540000D03*
D11*
X137250000Y-22250000D03*
%TD*%
D10*
%TO.C,J8*%
X171290000Y-47820000D03*
D11*
X177110000Y-51800000D03*
X184050000Y-44860000D03*
D10*
X180070000Y-39040000D03*
D11*
X173000000Y-40750000D03*
%TD*%
D10*
%TO.C,J16*%
X171290000Y-84070000D03*
D11*
X177110000Y-88050000D03*
X184050000Y-81110000D03*
D10*
X180070000Y-75290000D03*
D11*
X173000000Y-77000000D03*
%TD*%
D10*
%TO.C,J15*%
X153790000Y-84070000D03*
D11*
X159610000Y-88050000D03*
X166550000Y-81110000D03*
D10*
X162570000Y-75290000D03*
D11*
X155500000Y-77000000D03*
%TD*%
D10*
%TO.C,J13*%
X117290000Y-84070000D03*
D11*
X123110000Y-88050000D03*
X130050000Y-81110000D03*
D10*
X126070000Y-75290000D03*
D11*
X119000000Y-77000000D03*
%TD*%
D10*
%TO.C,J12*%
X171290000Y-66070000D03*
D11*
X177110000Y-70050000D03*
X184050000Y-63110000D03*
D10*
X180070000Y-57290000D03*
D11*
X173000000Y-59000000D03*
%TD*%
D10*
%TO.C,J11*%
X153790000Y-66070000D03*
D11*
X159610000Y-70050000D03*
X166550000Y-63110000D03*
D10*
X162570000Y-57290000D03*
D11*
X155500000Y-59000000D03*
%TD*%
D10*
%TO.C,J9*%
X117290000Y-66070000D03*
D11*
X123110000Y-70050000D03*
X130050000Y-63110000D03*
D10*
X126070000Y-57290000D03*
D11*
X119000000Y-59000000D03*
%TD*%
D10*
%TO.C,J7*%
X153790000Y-47820000D03*
D11*
X159610000Y-51800000D03*
X166550000Y-44860000D03*
D10*
X162570000Y-39040000D03*
D11*
X155500000Y-40750000D03*
%TD*%
D10*
%TO.C,J5*%
X117540000Y-47820000D03*
D11*
X123360000Y-51800000D03*
X130300000Y-44860000D03*
D10*
X126320000Y-39040000D03*
D11*
X119250000Y-40750000D03*
%TD*%
D10*
%TO.C,J4*%
X171290000Y-29320000D03*
D11*
X177110000Y-33300000D03*
X184050000Y-26360000D03*
D10*
X180070000Y-20540000D03*
D11*
X173000000Y-22250000D03*
%TD*%
D10*
%TO.C,J1*%
X117790000Y-29320000D03*
D11*
X123610000Y-33300000D03*
X130550000Y-26360000D03*
D10*
X126570000Y-20540000D03*
D11*
X119500000Y-22250000D03*
%TD*%
D10*
%TO.C,J3*%
X153790000Y-29320000D03*
D11*
X159610000Y-33300000D03*
X166550000Y-26360000D03*
D10*
X162570000Y-20540000D03*
D11*
X155500000Y-22250000D03*
%TD*%
D12*
%TO.C,Q1*%
X59250000Y-43830000D03*
X59250000Y-41290000D03*
D13*
X59250000Y-38750000D03*
%TD*%
D14*
%TO.C,J19*%
X65210000Y-36750000D03*
D15*
X67750000Y-36750000D03*
%TD*%
D16*
%TO.C,U4*%
X43690000Y-67190000D03*
X51310000Y-74810000D03*
X46230000Y-67190000D03*
X48770000Y-74810000D03*
X48770000Y-67190000D03*
X46230000Y-74810000D03*
X51310000Y-67190000D03*
X43690000Y-74810000D03*
%TD*%
%TO.C,R34*%
G36*
G01*
X47050000Y-63549999D02*
X47050000Y-64450001D01*
G75*
G02*
X46800001Y-64700000I-249999J0D01*
G01*
X46149999Y-64700000D01*
G75*
G02*
X45900000Y-64450001I0J249999D01*
G01*
X45900000Y-63549999D01*
G75*
G02*
X46149999Y-63300000I249999J0D01*
G01*
X46800001Y-63300000D01*
G75*
G02*
X47050000Y-63549999I0J-249999D01*
G01*
G37*
G36*
G01*
X49100000Y-63549999D02*
X49100000Y-64450001D01*
G75*
G02*
X48850001Y-64700000I-249999J0D01*
G01*
X48199999Y-64700000D01*
G75*
G02*
X47950000Y-64450001I0J249999D01*
G01*
X47950000Y-63549999D01*
G75*
G02*
X48199999Y-63300000I249999J0D01*
G01*
X48850001Y-63300000D01*
G75*
G02*
X49100000Y-63549999I0J-249999D01*
G01*
G37*
%TD*%
%TO.C,R33*%
G36*
G01*
X39700001Y-70575000D02*
X38799999Y-70575000D01*
G75*
G02*
X38550000Y-70325001I0J249999D01*
G01*
X38550000Y-69674999D01*
G75*
G02*
X38799999Y-69425000I249999J0D01*
G01*
X39700001Y-69425000D01*
G75*
G02*
X39950000Y-69674999I0J-249999D01*
G01*
X39950000Y-70325001D01*
G75*
G02*
X39700001Y-70575000I-249999J0D01*
G01*
G37*
G36*
G01*
X39700001Y-72625000D02*
X38799999Y-72625000D01*
G75*
G02*
X38550000Y-72375001I0J249999D01*
G01*
X38550000Y-71724999D01*
G75*
G02*
X38799999Y-71475000I249999J0D01*
G01*
X39700001Y-71475000D01*
G75*
G02*
X39950000Y-71724999I0J-249999D01*
G01*
X39950000Y-72375001D01*
G75*
G02*
X39700001Y-72625000I-249999J0D01*
G01*
G37*
%TD*%
D14*
%TO.C,J18*%
X50040000Y-83000000D03*
D15*
X47500000Y-83000000D03*
%TD*%
D17*
%TO.C,J17*%
X65460000Y-43220000D03*
X68000000Y-43220000D03*
X65460000Y-45760000D03*
X68000000Y-45760000D03*
X65460000Y-48300000D03*
X68000000Y-48300000D03*
X65460000Y-50840000D03*
X68000000Y-50840000D03*
X65460000Y-53380000D03*
X68000000Y-53380000D03*
X65460000Y-55920000D03*
X68000000Y-55920000D03*
X65460000Y-58460000D03*
X68000000Y-58460000D03*
X65460000Y-61000000D03*
D18*
X68000000Y-61000000D03*
%TD*%
%TO.C,D1*%
G36*
G01*
X48925000Y-79450001D02*
X48925000Y-78549999D01*
G75*
G02*
X49174999Y-78300000I249999J0D01*
G01*
X49825001Y-78300000D01*
G75*
G02*
X50075000Y-78549999I0J-249999D01*
G01*
X50075000Y-79450001D01*
G75*
G02*
X49825001Y-79700000I-249999J0D01*
G01*
X49174999Y-79700000D01*
G75*
G02*
X48925000Y-79450001I0J249999D01*
G01*
G37*
G36*
G01*
X46875000Y-79450001D02*
X46875000Y-78549999D01*
G75*
G02*
X47124999Y-78300000I249999J0D01*
G01*
X47775001Y-78300000D01*
G75*
G02*
X48025000Y-78549999I0J-249999D01*
G01*
X48025000Y-79450001D01*
G75*
G02*
X47775001Y-79700000I-249999J0D01*
G01*
X47124999Y-79700000D01*
G75*
G02*
X46875000Y-79450001I0J249999D01*
G01*
G37*
%TD*%
%TO.C,C1*%
G36*
G01*
X42975000Y-64450001D02*
X42975000Y-63549999D01*
G75*
G02*
X43224999Y-63300000I249999J0D01*
G01*
X43875001Y-63300000D01*
G75*
G02*
X44125000Y-63549999I0J-249999D01*
G01*
X44125000Y-64450001D01*
G75*
G02*
X43875001Y-64700000I-249999J0D01*
G01*
X43224999Y-64700000D01*
G75*
G02*
X42975000Y-64450001I0J249999D01*
G01*
G37*
G36*
G01*
X40925000Y-64450001D02*
X40925000Y-63549999D01*
G75*
G02*
X41174999Y-63300000I249999J0D01*
G01*
X41825001Y-63300000D01*
G75*
G02*
X42075000Y-63549999I0J-249999D01*
G01*
X42075000Y-64450001D01*
G75*
G02*
X41825001Y-64700000I-249999J0D01*
G01*
X41174999Y-64700000D01*
G75*
G02*
X40925000Y-64450001I0J249999D01*
G01*
G37*
%TD*%
D19*
%TO.C,U2*%
X69000000Y-25000000D03*
X67000000Y-25950000D03*
X67000000Y-24050000D03*
%TD*%
D20*
%TO.C,IC4*%
X90575000Y-78562000D03*
X89925000Y-78562000D03*
X89275000Y-78562000D03*
X88625000Y-78562000D03*
X87975000Y-78562000D03*
X87325000Y-78562000D03*
X86675000Y-78562000D03*
X86025000Y-78562000D03*
X85375000Y-78562000D03*
X84725000Y-78562000D03*
X84075000Y-78562000D03*
X83425000Y-78562000D03*
X83425000Y-84438000D03*
X84075000Y-84438000D03*
X84725000Y-84438000D03*
X85375000Y-84438000D03*
X86025000Y-84438000D03*
X86675000Y-84438000D03*
X87325000Y-84438000D03*
X87975000Y-84438000D03*
X88625000Y-84438000D03*
X89275000Y-84438000D03*
X89925000Y-84438000D03*
X90575000Y-84438000D03*
D21*
X87000000Y-81500000D03*
%TD*%
D20*
%TO.C,IC3*%
X90575000Y-60062000D03*
X89925000Y-60062000D03*
X89275000Y-60062000D03*
X88625000Y-60062000D03*
X87975000Y-60062000D03*
X87325000Y-60062000D03*
X86675000Y-60062000D03*
X86025000Y-60062000D03*
X85375000Y-60062000D03*
X84725000Y-60062000D03*
X84075000Y-60062000D03*
X83425000Y-60062000D03*
X83425000Y-65938000D03*
X84075000Y-65938000D03*
X84725000Y-65938000D03*
X85375000Y-65938000D03*
X86025000Y-65938000D03*
X86675000Y-65938000D03*
X87325000Y-65938000D03*
X87975000Y-65938000D03*
X88625000Y-65938000D03*
X89275000Y-65938000D03*
X89925000Y-65938000D03*
X90575000Y-65938000D03*
D21*
X87000000Y-63000000D03*
%TD*%
D20*
%TO.C,IC2*%
X90575000Y-42062000D03*
X89925000Y-42062000D03*
X89275000Y-42062000D03*
X88625000Y-42062000D03*
X87975000Y-42062000D03*
X87325000Y-42062000D03*
X86675000Y-42062000D03*
X86025000Y-42062000D03*
X85375000Y-42062000D03*
X84725000Y-42062000D03*
X84075000Y-42062000D03*
X83425000Y-42062000D03*
X83425000Y-47938000D03*
X84075000Y-47938000D03*
X84725000Y-47938000D03*
X85375000Y-47938000D03*
X86025000Y-47938000D03*
X86675000Y-47938000D03*
X87325000Y-47938000D03*
X87975000Y-47938000D03*
X88625000Y-47938000D03*
X89275000Y-47938000D03*
X89925000Y-47938000D03*
X90575000Y-47938000D03*
D21*
X87000000Y-45000000D03*
%TD*%
D20*
%TO.C,IC1*%
X90575000Y-24062000D03*
X89925000Y-24062000D03*
X89275000Y-24062000D03*
X88625000Y-24062000D03*
X87975000Y-24062000D03*
X87325000Y-24062000D03*
X86675000Y-24062000D03*
X86025000Y-24062000D03*
X85375000Y-24062000D03*
X84725000Y-24062000D03*
X84075000Y-24062000D03*
X83425000Y-24062000D03*
X83425000Y-29938000D03*
X84075000Y-29938000D03*
X84725000Y-29938000D03*
X85375000Y-29938000D03*
X86025000Y-29938000D03*
X86675000Y-29938000D03*
X87325000Y-29938000D03*
X87975000Y-29938000D03*
X88625000Y-29938000D03*
X89275000Y-29938000D03*
X89925000Y-29938000D03*
X90575000Y-29938000D03*
D21*
X87000000Y-27000000D03*
%TD*%
D22*
%TO.C,U7*%
X99893000Y-77705000D03*
X99893000Y-78975000D03*
X99893000Y-80245000D03*
X99893000Y-81515000D03*
X99893000Y-82785000D03*
X99893000Y-84055000D03*
X99893000Y-85325000D03*
X105317000Y-85325000D03*
X105317000Y-84055000D03*
X105317000Y-82785000D03*
X105317000Y-81515000D03*
X105317000Y-80245000D03*
X105317000Y-78975000D03*
X105317000Y-77705000D03*
%TD*%
%TO.C,U5*%
X99413000Y-58975000D03*
X99413000Y-60245000D03*
X99413000Y-61515000D03*
X99413000Y-62785000D03*
X99413000Y-64055000D03*
X99413000Y-65325000D03*
X99413000Y-66595000D03*
X104837000Y-66595000D03*
X104837000Y-65325000D03*
X104837000Y-64055000D03*
X104837000Y-62785000D03*
X104837000Y-61515000D03*
X104837000Y-60245000D03*
X104837000Y-58975000D03*
%TD*%
%TO.C,U3*%
X99413000Y-41705000D03*
X99413000Y-42975000D03*
X99413000Y-44245000D03*
X99413000Y-45515000D03*
X99413000Y-46785000D03*
X99413000Y-48055000D03*
X99413000Y-49325000D03*
X104837000Y-49325000D03*
X104837000Y-48055000D03*
X104837000Y-46785000D03*
X104837000Y-45515000D03*
X104837000Y-44245000D03*
X104837000Y-42975000D03*
X104837000Y-41705000D03*
%TD*%
%TO.C,R32*%
G36*
G01*
X108550000Y-83549999D02*
X108550000Y-84450001D01*
G75*
G02*
X108300001Y-84700000I-249999J0D01*
G01*
X107649999Y-84700000D01*
G75*
G02*
X107400000Y-84450001I0J249999D01*
G01*
X107400000Y-83549999D01*
G75*
G02*
X107649999Y-83300000I249999J0D01*
G01*
X108300001Y-83300000D01*
G75*
G02*
X108550000Y-83549999I0J-249999D01*
G01*
G37*
G36*
G01*
X110600000Y-83549999D02*
X110600000Y-84450001D01*
G75*
G02*
X110350001Y-84700000I-249999J0D01*
G01*
X109699999Y-84700000D01*
G75*
G02*
X109450000Y-84450001I0J249999D01*
G01*
X109450000Y-83549999D01*
G75*
G02*
X109699999Y-83300000I249999J0D01*
G01*
X110350001Y-83300000D01*
G75*
G02*
X110600000Y-83549999I0J-249999D01*
G01*
G37*
%TD*%
%TO.C,R31*%
G36*
G01*
X109450000Y-79450001D02*
X109450000Y-78549999D01*
G75*
G02*
X109699999Y-78300000I249999J0D01*
G01*
X110350001Y-78300000D01*
G75*
G02*
X110600000Y-78549999I0J-249999D01*
G01*
X110600000Y-79450001D01*
G75*
G02*
X110350001Y-79700000I-249999J0D01*
G01*
X109699999Y-79700000D01*
G75*
G02*
X109450000Y-79450001I0J249999D01*
G01*
G37*
G36*
G01*
X107400000Y-79450001D02*
X107400000Y-78549999D01*
G75*
G02*
X107649999Y-78300000I249999J0D01*
G01*
X108300001Y-78300000D01*
G75*
G02*
X108550000Y-78549999I0J-249999D01*
G01*
X108550000Y-79450001D01*
G75*
G02*
X108300001Y-79700000I-249999J0D01*
G01*
X107649999Y-79700000D01*
G75*
G02*
X107400000Y-79450001I0J249999D01*
G01*
G37*
%TD*%
%TO.C,R30*%
G36*
G01*
X106450000Y-88450001D02*
X106450000Y-87549999D01*
G75*
G02*
X106699999Y-87300000I249999J0D01*
G01*
X107350001Y-87300000D01*
G75*
G02*
X107600000Y-87549999I0J-249999D01*
G01*
X107600000Y-88450001D01*
G75*
G02*
X107350001Y-88700000I-249999J0D01*
G01*
X106699999Y-88700000D01*
G75*
G02*
X106450000Y-88450001I0J249999D01*
G01*
G37*
G36*
G01*
X104400000Y-88450001D02*
X104400000Y-87549999D01*
G75*
G02*
X104649999Y-87300000I249999J0D01*
G01*
X105300001Y-87300000D01*
G75*
G02*
X105550000Y-87549999I0J-249999D01*
G01*
X105550000Y-88450001D01*
G75*
G02*
X105300001Y-88700000I-249999J0D01*
G01*
X104649999Y-88700000D01*
G75*
G02*
X104400000Y-88450001I0J249999D01*
G01*
G37*
%TD*%
%TO.C,R29*%
G36*
G01*
X106550000Y-74549999D02*
X106550000Y-75450001D01*
G75*
G02*
X106300001Y-75700000I-249999J0D01*
G01*
X105649999Y-75700000D01*
G75*
G02*
X105400000Y-75450001I0J249999D01*
G01*
X105400000Y-74549999D01*
G75*
G02*
X105649999Y-74300000I249999J0D01*
G01*
X106300001Y-74300000D01*
G75*
G02*
X106550000Y-74549999I0J-249999D01*
G01*
G37*
G36*
G01*
X108600000Y-74549999D02*
X108600000Y-75450001D01*
G75*
G02*
X108350001Y-75700000I-249999J0D01*
G01*
X107699999Y-75700000D01*
G75*
G02*
X107450000Y-75450001I0J249999D01*
G01*
X107450000Y-74549999D01*
G75*
G02*
X107699999Y-74300000I249999J0D01*
G01*
X108350001Y-74300000D01*
G75*
G02*
X108600000Y-74549999I0J-249999D01*
G01*
G37*
%TD*%
%TO.C,R28*%
G36*
G01*
X98450000Y-75450001D02*
X98450000Y-74549999D01*
G75*
G02*
X98699999Y-74300000I249999J0D01*
G01*
X99350001Y-74300000D01*
G75*
G02*
X99600000Y-74549999I0J-249999D01*
G01*
X99600000Y-75450001D01*
G75*
G02*
X99350001Y-75700000I-249999J0D01*
G01*
X98699999Y-75700000D01*
G75*
G02*
X98450000Y-75450001I0J249999D01*
G01*
G37*
G36*
G01*
X96400000Y-75450001D02*
X96400000Y-74549999D01*
G75*
G02*
X96649999Y-74300000I249999J0D01*
G01*
X97300001Y-74300000D01*
G75*
G02*
X97550000Y-74549999I0J-249999D01*
G01*
X97550000Y-75450001D01*
G75*
G02*
X97300001Y-75700000I-249999J0D01*
G01*
X96649999Y-75700000D01*
G75*
G02*
X96400000Y-75450001I0J249999D01*
G01*
G37*
%TD*%
%TO.C,R27*%
G36*
G01*
X97550000Y-87549999D02*
X97550000Y-88450001D01*
G75*
G02*
X97300001Y-88700000I-249999J0D01*
G01*
X96649999Y-88700000D01*
G75*
G02*
X96400000Y-88450001I0J249999D01*
G01*
X96400000Y-87549999D01*
G75*
G02*
X96649999Y-87300000I249999J0D01*
G01*
X97300001Y-87300000D01*
G75*
G02*
X97550000Y-87549999I0J-249999D01*
G01*
G37*
G36*
G01*
X99600000Y-87549999D02*
X99600000Y-88450001D01*
G75*
G02*
X99350001Y-88700000I-249999J0D01*
G01*
X98699999Y-88700000D01*
G75*
G02*
X98450000Y-88450001I0J249999D01*
G01*
X98450000Y-87549999D01*
G75*
G02*
X98699999Y-87300000I249999J0D01*
G01*
X99350001Y-87300000D01*
G75*
G02*
X99600000Y-87549999I0J-249999D01*
G01*
G37*
%TD*%
%TO.C,R26*%
G36*
G01*
X96450000Y-79450001D02*
X96450000Y-78549999D01*
G75*
G02*
X96699999Y-78300000I249999J0D01*
G01*
X97350001Y-78300000D01*
G75*
G02*
X97600000Y-78549999I0J-249999D01*
G01*
X97600000Y-79450001D01*
G75*
G02*
X97350001Y-79700000I-249999J0D01*
G01*
X96699999Y-79700000D01*
G75*
G02*
X96450000Y-79450001I0J249999D01*
G01*
G37*
G36*
G01*
X94400000Y-79450001D02*
X94400000Y-78549999D01*
G75*
G02*
X94649999Y-78300000I249999J0D01*
G01*
X95300001Y-78300000D01*
G75*
G02*
X95550000Y-78549999I0J-249999D01*
G01*
X95550000Y-79450001D01*
G75*
G02*
X95300001Y-79700000I-249999J0D01*
G01*
X94649999Y-79700000D01*
G75*
G02*
X94400000Y-79450001I0J249999D01*
G01*
G37*
%TD*%
%TO.C,R25*%
G36*
G01*
X95550000Y-84049999D02*
X95550000Y-84950001D01*
G75*
G02*
X95300001Y-85200000I-249999J0D01*
G01*
X94649999Y-85200000D01*
G75*
G02*
X94400000Y-84950001I0J249999D01*
G01*
X94400000Y-84049999D01*
G75*
G02*
X94649999Y-83800000I249999J0D01*
G01*
X95300001Y-83800000D01*
G75*
G02*
X95550000Y-84049999I0J-249999D01*
G01*
G37*
G36*
G01*
X97600000Y-84049999D02*
X97600000Y-84950001D01*
G75*
G02*
X97350001Y-85200000I-249999J0D01*
G01*
X96699999Y-85200000D01*
G75*
G02*
X96450000Y-84950001I0J249999D01*
G01*
X96450000Y-84049999D01*
G75*
G02*
X96699999Y-83800000I249999J0D01*
G01*
X97350001Y-83800000D01*
G75*
G02*
X97600000Y-84049999I0J-249999D01*
G01*
G37*
%TD*%
%TO.C,R24*%
G36*
G01*
X108550000Y-65549999D02*
X108550000Y-66450001D01*
G75*
G02*
X108300001Y-66700000I-249999J0D01*
G01*
X107649999Y-66700000D01*
G75*
G02*
X107400000Y-66450001I0J249999D01*
G01*
X107400000Y-65549999D01*
G75*
G02*
X107649999Y-65300000I249999J0D01*
G01*
X108300001Y-65300000D01*
G75*
G02*
X108550000Y-65549999I0J-249999D01*
G01*
G37*
G36*
G01*
X110600000Y-65549999D02*
X110600000Y-66450001D01*
G75*
G02*
X110350001Y-66700000I-249999J0D01*
G01*
X109699999Y-66700000D01*
G75*
G02*
X109450000Y-66450001I0J249999D01*
G01*
X109450000Y-65549999D01*
G75*
G02*
X109699999Y-65300000I249999J0D01*
G01*
X110350001Y-65300000D01*
G75*
G02*
X110600000Y-65549999I0J-249999D01*
G01*
G37*
%TD*%
%TO.C,R23*%
G36*
G01*
X109200000Y-60450001D02*
X109200000Y-59549999D01*
G75*
G02*
X109449999Y-59300000I249999J0D01*
G01*
X110100001Y-59300000D01*
G75*
G02*
X110350000Y-59549999I0J-249999D01*
G01*
X110350000Y-60450001D01*
G75*
G02*
X110100001Y-60700000I-249999J0D01*
G01*
X109449999Y-60700000D01*
G75*
G02*
X109200000Y-60450001I0J249999D01*
G01*
G37*
G36*
G01*
X107150000Y-60450001D02*
X107150000Y-59549999D01*
G75*
G02*
X107399999Y-59300000I249999J0D01*
G01*
X108050001Y-59300000D01*
G75*
G02*
X108300000Y-59549999I0J-249999D01*
G01*
X108300000Y-60450001D01*
G75*
G02*
X108050001Y-60700000I-249999J0D01*
G01*
X107399999Y-60700000D01*
G75*
G02*
X107150000Y-60450001I0J249999D01*
G01*
G37*
%TD*%
%TO.C,R22*%
G36*
G01*
X107450000Y-69450001D02*
X107450000Y-68549999D01*
G75*
G02*
X107699999Y-68300000I249999J0D01*
G01*
X108350001Y-68300000D01*
G75*
G02*
X108600000Y-68549999I0J-249999D01*
G01*
X108600000Y-69450001D01*
G75*
G02*
X108350001Y-69700000I-249999J0D01*
G01*
X107699999Y-69700000D01*
G75*
G02*
X107450000Y-69450001I0J249999D01*
G01*
G37*
G36*
G01*
X105400000Y-69450001D02*
X105400000Y-68549999D01*
G75*
G02*
X105649999Y-68300000I249999J0D01*
G01*
X106300001Y-68300000D01*
G75*
G02*
X106550000Y-68549999I0J-249999D01*
G01*
X106550000Y-69450001D01*
G75*
G02*
X106300001Y-69700000I-249999J0D01*
G01*
X105649999Y-69700000D01*
G75*
G02*
X105400000Y-69450001I0J249999D01*
G01*
G37*
%TD*%
%TO.C,R21*%
G36*
G01*
X105550000Y-56049999D02*
X105550000Y-56950001D01*
G75*
G02*
X105300001Y-57200000I-249999J0D01*
G01*
X104649999Y-57200000D01*
G75*
G02*
X104400000Y-56950001I0J249999D01*
G01*
X104400000Y-56049999D01*
G75*
G02*
X104649999Y-55800000I249999J0D01*
G01*
X105300001Y-55800000D01*
G75*
G02*
X105550000Y-56049999I0J-249999D01*
G01*
G37*
G36*
G01*
X107600000Y-56049999D02*
X107600000Y-56950001D01*
G75*
G02*
X107350001Y-57200000I-249999J0D01*
G01*
X106699999Y-57200000D01*
G75*
G02*
X106450000Y-56950001I0J249999D01*
G01*
X106450000Y-56049999D01*
G75*
G02*
X106699999Y-55800000I249999J0D01*
G01*
X107350001Y-55800000D01*
G75*
G02*
X107600000Y-56049999I0J-249999D01*
G01*
G37*
%TD*%
%TO.C,R20*%
G36*
G01*
X98950000Y-56950001D02*
X98950000Y-56049999D01*
G75*
G02*
X99199999Y-55800000I249999J0D01*
G01*
X99850001Y-55800000D01*
G75*
G02*
X100100000Y-56049999I0J-249999D01*
G01*
X100100000Y-56950001D01*
G75*
G02*
X99850001Y-57200000I-249999J0D01*
G01*
X99199999Y-57200000D01*
G75*
G02*
X98950000Y-56950001I0J249999D01*
G01*
G37*
G36*
G01*
X96900000Y-56950001D02*
X96900000Y-56049999D01*
G75*
G02*
X97149999Y-55800000I249999J0D01*
G01*
X97800001Y-55800000D01*
G75*
G02*
X98050000Y-56049999I0J-249999D01*
G01*
X98050000Y-56950001D01*
G75*
G02*
X97800001Y-57200000I-249999J0D01*
G01*
X97149999Y-57200000D01*
G75*
G02*
X96900000Y-56950001I0J249999D01*
G01*
G37*
%TD*%
%TO.C,R19*%
G36*
G01*
X96550000Y-68549999D02*
X96550000Y-69450001D01*
G75*
G02*
X96300001Y-69700000I-249999J0D01*
G01*
X95649999Y-69700000D01*
G75*
G02*
X95400000Y-69450001I0J249999D01*
G01*
X95400000Y-68549999D01*
G75*
G02*
X95649999Y-68300000I249999J0D01*
G01*
X96300001Y-68300000D01*
G75*
G02*
X96550000Y-68549999I0J-249999D01*
G01*
G37*
G36*
G01*
X98600000Y-68549999D02*
X98600000Y-69450001D01*
G75*
G02*
X98350001Y-69700000I-249999J0D01*
G01*
X97699999Y-69700000D01*
G75*
G02*
X97450000Y-69450001I0J249999D01*
G01*
X97450000Y-68549999D01*
G75*
G02*
X97699999Y-68300000I249999J0D01*
G01*
X98350001Y-68300000D01*
G75*
G02*
X98600000Y-68549999I0J-249999D01*
G01*
G37*
%TD*%
%TO.C,R18*%
G36*
G01*
X95950000Y-59950001D02*
X95950000Y-59049999D01*
G75*
G02*
X96199999Y-58800000I249999J0D01*
G01*
X96850001Y-58800000D01*
G75*
G02*
X97100000Y-59049999I0J-249999D01*
G01*
X97100000Y-59950001D01*
G75*
G02*
X96850001Y-60200000I-249999J0D01*
G01*
X96199999Y-60200000D01*
G75*
G02*
X95950000Y-59950001I0J249999D01*
G01*
G37*
G36*
G01*
X93900000Y-59950001D02*
X93900000Y-59049999D01*
G75*
G02*
X94149999Y-58800000I249999J0D01*
G01*
X94800001Y-58800000D01*
G75*
G02*
X95050000Y-59049999I0J-249999D01*
G01*
X95050000Y-59950001D01*
G75*
G02*
X94800001Y-60200000I-249999J0D01*
G01*
X94149999Y-60200000D01*
G75*
G02*
X93900000Y-59950001I0J249999D01*
G01*
G37*
%TD*%
%TO.C,R17*%
G36*
G01*
X94550000Y-65549999D02*
X94550000Y-66450001D01*
G75*
G02*
X94300001Y-66700000I-249999J0D01*
G01*
X93649999Y-66700000D01*
G75*
G02*
X93400000Y-66450001I0J249999D01*
G01*
X93400000Y-65549999D01*
G75*
G02*
X93649999Y-65300000I249999J0D01*
G01*
X94300001Y-65300000D01*
G75*
G02*
X94550000Y-65549999I0J-249999D01*
G01*
G37*
G36*
G01*
X96600000Y-65549999D02*
X96600000Y-66450001D01*
G75*
G02*
X96350001Y-66700000I-249999J0D01*
G01*
X95699999Y-66700000D01*
G75*
G02*
X95450000Y-66450001I0J249999D01*
G01*
X95450000Y-65549999D01*
G75*
G02*
X95699999Y-65300000I249999J0D01*
G01*
X96350001Y-65300000D01*
G75*
G02*
X96600000Y-65549999I0J-249999D01*
G01*
G37*
%TD*%
%TO.C,R16*%
G36*
G01*
X108550000Y-47549999D02*
X108550000Y-48450001D01*
G75*
G02*
X108300001Y-48700000I-249999J0D01*
G01*
X107649999Y-48700000D01*
G75*
G02*
X107400000Y-48450001I0J249999D01*
G01*
X107400000Y-47549999D01*
G75*
G02*
X107649999Y-47300000I249999J0D01*
G01*
X108300001Y-47300000D01*
G75*
G02*
X108550000Y-47549999I0J-249999D01*
G01*
G37*
G36*
G01*
X110600000Y-47549999D02*
X110600000Y-48450001D01*
G75*
G02*
X110350001Y-48700000I-249999J0D01*
G01*
X109699999Y-48700000D01*
G75*
G02*
X109450000Y-48450001I0J249999D01*
G01*
X109450000Y-47549999D01*
G75*
G02*
X109699999Y-47300000I249999J0D01*
G01*
X110350001Y-47300000D01*
G75*
G02*
X110600000Y-47549999I0J-249999D01*
G01*
G37*
%TD*%
%TO.C,R15*%
G36*
G01*
X109425000Y-42450001D02*
X109425000Y-41549999D01*
G75*
G02*
X109674999Y-41300000I249999J0D01*
G01*
X110325001Y-41300000D01*
G75*
G02*
X110575000Y-41549999I0J-249999D01*
G01*
X110575000Y-42450001D01*
G75*
G02*
X110325001Y-42700000I-249999J0D01*
G01*
X109674999Y-42700000D01*
G75*
G02*
X109425000Y-42450001I0J249999D01*
G01*
G37*
G36*
G01*
X107375000Y-42450001D02*
X107375000Y-41549999D01*
G75*
G02*
X107624999Y-41300000I249999J0D01*
G01*
X108275001Y-41300000D01*
G75*
G02*
X108525000Y-41549999I0J-249999D01*
G01*
X108525000Y-42450001D01*
G75*
G02*
X108275001Y-42700000I-249999J0D01*
G01*
X107624999Y-42700000D01*
G75*
G02*
X107375000Y-42450001I0J249999D01*
G01*
G37*
%TD*%
%TO.C,R14*%
G36*
G01*
X106450000Y-52450001D02*
X106450000Y-51549999D01*
G75*
G02*
X106699999Y-51300000I249999J0D01*
G01*
X107350001Y-51300000D01*
G75*
G02*
X107600000Y-51549999I0J-249999D01*
G01*
X107600000Y-52450001D01*
G75*
G02*
X107350001Y-52700000I-249999J0D01*
G01*
X106699999Y-52700000D01*
G75*
G02*
X106450000Y-52450001I0J249999D01*
G01*
G37*
G36*
G01*
X104400000Y-52450001D02*
X104400000Y-51549999D01*
G75*
G02*
X104649999Y-51300000I249999J0D01*
G01*
X105300001Y-51300000D01*
G75*
G02*
X105550000Y-51549999I0J-249999D01*
G01*
X105550000Y-52450001D01*
G75*
G02*
X105300001Y-52700000I-249999J0D01*
G01*
X104649999Y-52700000D01*
G75*
G02*
X104400000Y-52450001I0J249999D01*
G01*
G37*
%TD*%
%TO.C,R13*%
G36*
G01*
X105550000Y-38549999D02*
X105550000Y-39450001D01*
G75*
G02*
X105300001Y-39700000I-249999J0D01*
G01*
X104649999Y-39700000D01*
G75*
G02*
X104400000Y-39450001I0J249999D01*
G01*
X104400000Y-38549999D01*
G75*
G02*
X104649999Y-38300000I249999J0D01*
G01*
X105300001Y-38300000D01*
G75*
G02*
X105550000Y-38549999I0J-249999D01*
G01*
G37*
G36*
G01*
X107600000Y-38549999D02*
X107600000Y-39450001D01*
G75*
G02*
X107350001Y-39700000I-249999J0D01*
G01*
X106699999Y-39700000D01*
G75*
G02*
X106450000Y-39450001I0J249999D01*
G01*
X106450000Y-38549999D01*
G75*
G02*
X106699999Y-38300000I249999J0D01*
G01*
X107350001Y-38300000D01*
G75*
G02*
X107600000Y-38549999I0J-249999D01*
G01*
G37*
%TD*%
%TO.C,R12*%
G36*
G01*
X98450000Y-39450001D02*
X98450000Y-38549999D01*
G75*
G02*
X98699999Y-38300000I249999J0D01*
G01*
X99350001Y-38300000D01*
G75*
G02*
X99600000Y-38549999I0J-249999D01*
G01*
X99600000Y-39450001D01*
G75*
G02*
X99350001Y-39700000I-249999J0D01*
G01*
X98699999Y-39700000D01*
G75*
G02*
X98450000Y-39450001I0J249999D01*
G01*
G37*
G36*
G01*
X96400000Y-39450001D02*
X96400000Y-38549999D01*
G75*
G02*
X96649999Y-38300000I249999J0D01*
G01*
X97300001Y-38300000D01*
G75*
G02*
X97550000Y-38549999I0J-249999D01*
G01*
X97550000Y-39450001D01*
G75*
G02*
X97300001Y-39700000I-249999J0D01*
G01*
X96649999Y-39700000D01*
G75*
G02*
X96400000Y-39450001I0J249999D01*
G01*
G37*
%TD*%
%TO.C,R11*%
G36*
G01*
X96550000Y-51549999D02*
X96550000Y-52450001D01*
G75*
G02*
X96300001Y-52700000I-249999J0D01*
G01*
X95649999Y-52700000D01*
G75*
G02*
X95400000Y-52450001I0J249999D01*
G01*
X95400000Y-51549999D01*
G75*
G02*
X95649999Y-51300000I249999J0D01*
G01*
X96300001Y-51300000D01*
G75*
G02*
X96550000Y-51549999I0J-249999D01*
G01*
G37*
G36*
G01*
X98600000Y-51549999D02*
X98600000Y-52450001D01*
G75*
G02*
X98350001Y-52700000I-249999J0D01*
G01*
X97699999Y-52700000D01*
G75*
G02*
X97450000Y-52450001I0J249999D01*
G01*
X97450000Y-51549999D01*
G75*
G02*
X97699999Y-51300000I249999J0D01*
G01*
X98350001Y-51300000D01*
G75*
G02*
X98600000Y-51549999I0J-249999D01*
G01*
G37*
%TD*%
%TO.C,R10*%
G36*
G01*
X95450000Y-42450001D02*
X95450000Y-41549999D01*
G75*
G02*
X95699999Y-41300000I249999J0D01*
G01*
X96350001Y-41300000D01*
G75*
G02*
X96600000Y-41549999I0J-249999D01*
G01*
X96600000Y-42450001D01*
G75*
G02*
X96350001Y-42700000I-249999J0D01*
G01*
X95699999Y-42700000D01*
G75*
G02*
X95450000Y-42450001I0J249999D01*
G01*
G37*
G36*
G01*
X93400000Y-42450001D02*
X93400000Y-41549999D01*
G75*
G02*
X93649999Y-41300000I249999J0D01*
G01*
X94300001Y-41300000D01*
G75*
G02*
X94550000Y-41549999I0J-249999D01*
G01*
X94550000Y-42450001D01*
G75*
G02*
X94300001Y-42700000I-249999J0D01*
G01*
X93649999Y-42700000D01*
G75*
G02*
X93400000Y-42450001I0J249999D01*
G01*
G37*
%TD*%
%TO.C,R9*%
G36*
G01*
X94050000Y-49049999D02*
X94050000Y-49950001D01*
G75*
G02*
X93800001Y-50200000I-249999J0D01*
G01*
X93149999Y-50200000D01*
G75*
G02*
X92900000Y-49950001I0J249999D01*
G01*
X92900000Y-49049999D01*
G75*
G02*
X93149999Y-48800000I249999J0D01*
G01*
X93800001Y-48800000D01*
G75*
G02*
X94050000Y-49049999I0J-249999D01*
G01*
G37*
G36*
G01*
X96100000Y-49049999D02*
X96100000Y-49950001D01*
G75*
G02*
X95850001Y-50200000I-249999J0D01*
G01*
X95199999Y-50200000D01*
G75*
G02*
X94950000Y-49950001I0J249999D01*
G01*
X94950000Y-49049999D01*
G75*
G02*
X95199999Y-48800000I249999J0D01*
G01*
X95850001Y-48800000D01*
G75*
G02*
X96100000Y-49049999I0J-249999D01*
G01*
G37*
%TD*%
%TO.C,U1*%
X99668000Y-23180000D03*
X99668000Y-24450000D03*
X99668000Y-25720000D03*
X99668000Y-26990000D03*
X99668000Y-28260000D03*
X99668000Y-29530000D03*
X99668000Y-30800000D03*
X105092000Y-30800000D03*
X105092000Y-29530000D03*
X105092000Y-28260000D03*
X105092000Y-26990000D03*
X105092000Y-25720000D03*
X105092000Y-24450000D03*
X105092000Y-23180000D03*
%TD*%
%TO.C,R8*%
G36*
G01*
X108280000Y-29079999D02*
X108280000Y-29980001D01*
G75*
G02*
X108030001Y-30230000I-249999J0D01*
G01*
X107379999Y-30230000D01*
G75*
G02*
X107130000Y-29980001I0J249999D01*
G01*
X107130000Y-29079999D01*
G75*
G02*
X107379999Y-28830000I249999J0D01*
G01*
X108030001Y-28830000D01*
G75*
G02*
X108280000Y-29079999I0J-249999D01*
G01*
G37*
G36*
G01*
X110330000Y-29079999D02*
X110330000Y-29980001D01*
G75*
G02*
X110080001Y-30230000I-249999J0D01*
G01*
X109429999Y-30230000D01*
G75*
G02*
X109180000Y-29980001I0J249999D01*
G01*
X109180000Y-29079999D01*
G75*
G02*
X109429999Y-28830000I249999J0D01*
G01*
X110080001Y-28830000D01*
G75*
G02*
X110330000Y-29079999I0J-249999D01*
G01*
G37*
%TD*%
%TO.C,R7*%
G36*
G01*
X106640000Y-33790001D02*
X106640000Y-32889999D01*
G75*
G02*
X106889999Y-32640000I249999J0D01*
G01*
X107540001Y-32640000D01*
G75*
G02*
X107790000Y-32889999I0J-249999D01*
G01*
X107790000Y-33790001D01*
G75*
G02*
X107540001Y-34040000I-249999J0D01*
G01*
X106889999Y-34040000D01*
G75*
G02*
X106640000Y-33790001I0J249999D01*
G01*
G37*
G36*
G01*
X104590000Y-33790001D02*
X104590000Y-32889999D01*
G75*
G02*
X104839999Y-32640000I249999J0D01*
G01*
X105490001Y-32640000D01*
G75*
G02*
X105740000Y-32889999I0J-249999D01*
G01*
X105740000Y-33790001D01*
G75*
G02*
X105490001Y-34040000I-249999J0D01*
G01*
X104839999Y-34040000D01*
G75*
G02*
X104590000Y-33790001I0J249999D01*
G01*
G37*
%TD*%
%TO.C,R6*%
G36*
G01*
X109450000Y-24900001D02*
X109450000Y-23999999D01*
G75*
G02*
X109699999Y-23750000I249999J0D01*
G01*
X110350001Y-23750000D01*
G75*
G02*
X110600000Y-23999999I0J-249999D01*
G01*
X110600000Y-24900001D01*
G75*
G02*
X110350001Y-25150000I-249999J0D01*
G01*
X109699999Y-25150000D01*
G75*
G02*
X109450000Y-24900001I0J249999D01*
G01*
G37*
G36*
G01*
X107400000Y-24900001D02*
X107400000Y-23999999D01*
G75*
G02*
X107649999Y-23750000I249999J0D01*
G01*
X108300001Y-23750000D01*
G75*
G02*
X108550000Y-23999999I0J-249999D01*
G01*
X108550000Y-24900001D01*
G75*
G02*
X108300001Y-25150000I-249999J0D01*
G01*
X107649999Y-25150000D01*
G75*
G02*
X107400000Y-24900001I0J249999D01*
G01*
G37*
%TD*%
%TO.C,R5*%
G36*
G01*
X105740000Y-20189999D02*
X105740000Y-21090001D01*
G75*
G02*
X105490001Y-21340000I-249999J0D01*
G01*
X104839999Y-21340000D01*
G75*
G02*
X104590000Y-21090001I0J249999D01*
G01*
X104590000Y-20189999D01*
G75*
G02*
X104839999Y-19940000I249999J0D01*
G01*
X105490001Y-19940000D01*
G75*
G02*
X105740000Y-20189999I0J-249999D01*
G01*
G37*
G36*
G01*
X107790000Y-20189999D02*
X107790000Y-21090001D01*
G75*
G02*
X107540001Y-21340000I-249999J0D01*
G01*
X106889999Y-21340000D01*
G75*
G02*
X106640000Y-21090001I0J249999D01*
G01*
X106640000Y-20189999D01*
G75*
G02*
X106889999Y-19940000I249999J0D01*
G01*
X107540001Y-19940000D01*
G75*
G02*
X107790000Y-20189999I0J-249999D01*
G01*
G37*
%TD*%
%TO.C,R4*%
G36*
G01*
X96480000Y-24900001D02*
X96480000Y-23999999D01*
G75*
G02*
X96729999Y-23750000I249999J0D01*
G01*
X97380001Y-23750000D01*
G75*
G02*
X97630000Y-23999999I0J-249999D01*
G01*
X97630000Y-24900001D01*
G75*
G02*
X97380001Y-25150000I-249999J0D01*
G01*
X96729999Y-25150000D01*
G75*
G02*
X96480000Y-24900001I0J249999D01*
G01*
G37*
G36*
G01*
X94430000Y-24900001D02*
X94430000Y-23999999D01*
G75*
G02*
X94679999Y-23750000I249999J0D01*
G01*
X95330001Y-23750000D01*
G75*
G02*
X95580000Y-23999999I0J-249999D01*
G01*
X95580000Y-24900001D01*
G75*
G02*
X95330001Y-25150000I-249999J0D01*
G01*
X94679999Y-25150000D01*
G75*
G02*
X94430000Y-24900001I0J249999D01*
G01*
G37*
%TD*%
%TO.C,R3*%
G36*
G01*
X95050000Y-30549999D02*
X95050000Y-31450001D01*
G75*
G02*
X94800001Y-31700000I-249999J0D01*
G01*
X94149999Y-31700000D01*
G75*
G02*
X93900000Y-31450001I0J249999D01*
G01*
X93900000Y-30549999D01*
G75*
G02*
X94149999Y-30300000I249999J0D01*
G01*
X94800001Y-30300000D01*
G75*
G02*
X95050000Y-30549999I0J-249999D01*
G01*
G37*
G36*
G01*
X97100000Y-30549999D02*
X97100000Y-31450001D01*
G75*
G02*
X96850001Y-31700000I-249999J0D01*
G01*
X96199999Y-31700000D01*
G75*
G02*
X95950000Y-31450001I0J249999D01*
G01*
X95950000Y-30549999D01*
G75*
G02*
X96199999Y-30300000I249999J0D01*
G01*
X96850001Y-30300000D01*
G75*
G02*
X97100000Y-30549999I0J-249999D01*
G01*
G37*
%TD*%
%TO.C,R2*%
G36*
G01*
X99265000Y-21090001D02*
X99265000Y-20189999D01*
G75*
G02*
X99514999Y-19940000I249999J0D01*
G01*
X100165001Y-19940000D01*
G75*
G02*
X100415000Y-20189999I0J-249999D01*
G01*
X100415000Y-21090001D01*
G75*
G02*
X100165001Y-21340000I-249999J0D01*
G01*
X99514999Y-21340000D01*
G75*
G02*
X99265000Y-21090001I0J249999D01*
G01*
G37*
G36*
G01*
X97215000Y-21090001D02*
X97215000Y-20189999D01*
G75*
G02*
X97464999Y-19940000I249999J0D01*
G01*
X98115001Y-19940000D01*
G75*
G02*
X98365000Y-20189999I0J-249999D01*
G01*
X98365000Y-21090001D01*
G75*
G02*
X98115001Y-21340000I-249999J0D01*
G01*
X97464999Y-21340000D01*
G75*
G02*
X97215000Y-21090001I0J249999D01*
G01*
G37*
%TD*%
%TO.C,R1*%
G36*
G01*
X98120000Y-32889999D02*
X98120000Y-33790001D01*
G75*
G02*
X97870001Y-34040000I-249999J0D01*
G01*
X97219999Y-34040000D01*
G75*
G02*
X96970000Y-33790001I0J249999D01*
G01*
X96970000Y-32889999D01*
G75*
G02*
X97219999Y-32640000I249999J0D01*
G01*
X97870001Y-32640000D01*
G75*
G02*
X98120000Y-32889999I0J-249999D01*
G01*
G37*
G36*
G01*
X100170000Y-32889999D02*
X100170000Y-33790001D01*
G75*
G02*
X99920001Y-34040000I-249999J0D01*
G01*
X99269999Y-34040000D01*
G75*
G02*
X99020000Y-33790001I0J249999D01*
G01*
X99020000Y-32889999D01*
G75*
G02*
X99269999Y-32640000I249999J0D01*
G01*
X99920001Y-32640000D01*
G75*
G02*
X100170000Y-32889999I0J-249999D01*
G01*
G37*
%TD*%
D23*
%TO.C,A1*%
X55240000Y-53560000D03*
X40000000Y-53560000D03*
X55240000Y-18000000D03*
X40000000Y-51020000D03*
X55240000Y-20540000D03*
X40000000Y-48480000D03*
X55240000Y-23080000D03*
X40000000Y-45940000D03*
X55240000Y-25620000D03*
X40000000Y-43400000D03*
X55240000Y-28160000D03*
X40000000Y-40860000D03*
X55240000Y-30700000D03*
X40000000Y-38320000D03*
X55240000Y-33240000D03*
X40000000Y-35780000D03*
X55240000Y-35780000D03*
X40000000Y-33240000D03*
X55240000Y-38320000D03*
X40000000Y-30700000D03*
X55240000Y-40860000D03*
X40000000Y-28160000D03*
X55240000Y-43400000D03*
X40000000Y-25620000D03*
X55240000Y-45940000D03*
X40000000Y-23080000D03*
X55240000Y-48480000D03*
X40000000Y-20540000D03*
X55240000Y-51020000D03*
D24*
X40000000Y-18000000D03*
%TD*%
M02*
